<svg version="1.1" viewBox="0.0 0.0 960.0 720.0" fill="none" stroke="none" stroke-linecap="square" stroke-miterlimit="10" xmlns:xlink="http://www.w3.org/1999/xlink" xmlns="http://www.w3.org/2000/svg"><clipPath id="p.0"><path d="m0 0l960.0 0l0 720.0l-960.0 0l0 -720.0z" clip-rule="nonzero"/></clipPath><g clip-path="url(#p.0)"><path fill="#000000" fill-opacity="0.0" d="m0 0l960.0 0l0 720.0l-960.0 0z" fill-rule="evenodd"/><path fill="#666666" d="m279.0525 25.740158l406.5827 0l0 84.755905l-406.5827 0z" fill-rule="evenodd"/><path stroke="#000000" stroke-width="1.0" stroke-linejoin="round" stroke-linecap="butt" d="m279.0525 25.740158l406.5827 0l0 84.755905l-406.5827 0z" fill-rule="evenodd"/><path fill="#d9d9d9" d="m295.52124 62.78561q0.734375 0.09375 1.453125 0.40625q0.15625 -0.09375 0.3125 -0.140625q0.15625 -0.046875 0.296875 -0.046875q0.484375 0 0.78125 0.328125q0.296875 0.328125 0.296875 1.1093712l0 0.671875q0 0.78125 -0.296875 1.109375q-0.296875 0.328125 -0.765625 0.328125q-0.4375 0 -0.734375 -0.28125q-0.296875 -0.28125 -0.34375 -0.828125q-0.75 -0.59375 -1.875 -0.59375q-1.171875 0 -1.71875 0.421875q-0.546875 0.421875 -0.546875 0.9375q0 0.390625 0.328125 0.703125q0.328125 0.3125 1.390625 0.53125l1.421875 0.296875q1.796875 0.375 2.578125 1.09375q1.015625 0.9375 1.015625 2.453125q0 1.328125 -0.9375 2.375q-0.921875 1.03125 -2.65625 1.359375l0 1.8125q0 0.78125 -0.296875 1.109375q-0.296875 0.328125 -0.78125 0.328125q-0.46875 0 -0.765625 -0.328125q-0.296875 -0.328125 -0.296875 -1.109375l0 -1.8125q-0.828125 -0.171875 -1.65625 -0.546875q-0.453125 0.375 -0.84375 0.375q-0.5 0 -0.796875 -0.3125q-0.296875 -0.328125 -0.296875 -1.109375l0 -1.34375q0 -0.765625 0.296875 -1.09375q0.296875 -0.328125 0.765625 -0.328125q0.390625 0 0.640625 0.21875q0.265625 0.203125 0.375 0.640625q0.125 0.421875 0.328125 0.640625q0.3125 0.328125 0.953125 0.5625q0.640625 0.21875 1.328125 0.21875q1.1875 0 1.96875 -0.609375q0.53125 -0.40625 0.53125 -1.0625q0 -0.53125 -0.34375 -0.875q-0.359375 -0.328125 -1.5 -0.5625l-1.59375 -0.3125q-1.703125 -0.34375 -2.5 -1.21875q-0.78125 -0.890625 -0.78125 -2.125q0 -1.234375 0.84375 -2.1874962q0.859375 -0.953125 2.28125 -1.203125l0 -0.59375q0 -0.75 0.296875 -1.078125q0.296875 -0.328125 0.78125 -0.328125q0.46875 0 0.765625 0.328125q0.296875 0.328125 0.296875 1.078125l0 0.59375zm26.16043 11.734371q0 0.609375 -0.4375 1.015625q-0.421875 0.40625 -1.171875 0.40625q-0.75 0 -1.171875 -0.40625q-0.421875 -0.40625 -0.421875 -1.015625q0 -0.59375 0.421875 -1.0q0.421875 -0.40625 1.171875 -0.40625q0.75 0 1.171875 0.40625q0.4375 0.40625 0.4375 1.0zm15.564606 -12.140621l-6.84375 14.734371q-0.25 0.5625 -0.46875 0.71875q-0.265625 0.21875 -0.65625 0.21875q-0.4375 0 -0.75 -0.3125q-0.3125 -0.3125 -0.3125 -0.703125q0 -0.28125 0.25 -0.828125l6.859375 -14.734371q0.265625 -0.546875 0.453125 -0.71875q0.28125 -0.21875 0.65625 -0.21875q0.4375 0 0.75 0.3125q0.3125 0.3125 0.3125 0.703125q0 0.28125 -0.25 0.828125zm10.752075 4.390621l0 -0.625l2.5 0q0.765625 0 1.09375 0.296875q0.328125 0.296875 0.328125 0.765625q0 0.46875 -0.328125 0.765625q-0.328125 0.296875 -1.09375 0.296875l-0.375 0l0 7.78125q0 1.125 -0.46875 1.953125q-0.46875 0.84375 -1.453125 1.4375q-0.96875 0.609375 -2.203125 0.609375l-2.421875 0q-0.765625 0 -1.09375 -0.296875q-0.328125 -0.296875 -0.328125 -0.765625q0 -0.46875 0.328125 -0.765625q0.328125 -0.296875 1.09375 -0.296875l2.359375 0q0.984375 0 1.515625 -0.53125q0.546875 -0.53125 0.546875 -1.34375l0 -1.046875q-0.703125 0.453125 -1.4375 0.6875q-0.734375 0.234375 -1.515625 0.234375q-2.171875 0 -3.640625 -1.453125q-1.46875 -1.453125 -1.46875 -3.59375q0 -2.140625 1.46875 -3.59375q1.46875 -1.453125 3.640625 -1.453125q0.8125 0 1.546875 0.234375q0.734375 0.234375 1.40625 0.703125zm-0.015625 4.09375q0 -1.171875 -0.875 -2.03125q-0.859375 -0.875 -2.078125 -0.875q-1.21875 0 -2.09375 0.875q-0.859375 0.859375 -0.859375 2.03125q0 1.1875 0.859375 2.046875q0.875 0.859375 2.09375 0.859375q1.21875 0 2.078125 -0.859375q0.875 -0.859375 0.875 -2.046875zm10.017731 -4.71875l0 1.328125q1.34375 -0.96875 2.125 -1.28125q0.78125 -0.328125 1.453125 -0.328125q1.046875 0 2.015625 0.765625q0.671875 0.515625 0.671875 1.0625q0 0.453125 -0.328125 0.78125q-0.3125 0.3125 -0.765625 0.3125q-0.390625 0 -0.828125 -0.390625q-0.4375 -0.40625 -0.78125 -0.40625q-0.4375 0 -1.328125 0.5625q-0.890625 0.5625 -2.234375 1.6875l0 3.21875l3.046875 0q0.765625 0 1.09375 0.296875q0.328125 0.296875 0.328125 0.78125q0 0.46875 -0.328125 0.765625q-0.328125 0.296875 -1.09375 0.296875l-6.453125 0q-0.765625 0 -1.09375 -0.296875q-0.328125 -0.296875 -0.328125 -0.78125q0 -0.46875 0.328125 -0.765625q0.328125 -0.296875 1.09375 -0.296875l1.28125 0l0 -5.1875l-0.78125 0q-0.765625 0 -1.09375 -0.296875q-0.328125 -0.296875 -0.328125 -0.765625q0 -0.46875 0.328125 -0.765625q0.328125 -0.296875 1.09375 -0.296875l2.90625 0zm15.17395 9.453125l0 -0.5q-0.8125 0.421875 -1.78125 0.640625q-0.96875 0.21875 -1.75 0.21875q-1.71875 0 -2.796875 -0.90625q-1.078125 -0.921875 -1.078125 -2.03125q0 -1.34375 1.375 -2.484375q1.375 -1.15625 3.78125 -1.15625q0.96875 0 2.25 0.203125l0 -0.5q0 -0.484375 -0.421875 -0.78125q-0.40625 -0.3125 -1.5625 -0.3125q-0.953125 0 -2.453125 0.375q-0.5625 0.140625 -0.875 0.140625q-0.4375 0 -0.734375 -0.296875q-0.296875 -0.3125 -0.296875 -0.796875q0 -0.265625 0.109375 -0.46875q0.109375 -0.203125 0.296875 -0.3125q0.1875 -0.125 0.78125 -0.296875q0.78125 -0.21875 1.609375 -0.34375q0.828125 -0.125 1.484375 -0.125q2.0 0 3.09375 0.859375q1.09375 0.859375 1.09375 2.34375l0 4.390625l0.359375 0q0.78125 0 1.109375 0.296875q0.328125 0.296875 0.328125 0.78125q0 0.46875 -0.328125 0.765625q-0.328125 0.296875 -1.109375 0.296875l-2.484375 0zm0 -3.828125q-1.28125 -0.25 -2.375 -0.25q-1.296875 0 -2.234375 0.640625q-0.578125 0.40625 -0.578125 0.828125q0 0.296875 0.28125 0.484375q0.515625 0.34375 1.421875 0.34375q0.765625 0 1.734375 -0.296875q0.984375 -0.3125 1.75 -0.828125l0 -0.921875zm15.767731 -9.671871l0 11.359371l0.359375 0q0.765625 0 1.09375 0.296875q0.34375 0.296875 0.34375 0.78125q0 0.46875 -0.328125 0.765625q-0.328125 0.296875 -1.109375 0.296875l-2.484375 0l0 -0.515625q-0.734375 0.421875 -1.53125 0.640625q-0.796875 0.21875 -1.65625 0.21875q-2.40625 0 -3.875 -1.390625q-1.46875 -1.390625 -1.46875 -3.46875q0 -2.15625 1.546875 -3.6875q1.546875 -1.53125 3.765625 -1.53125q0.828125 0 1.625 0.25q0.8125 0.25 1.59375 0.765625l0 -2.65625l-0.375 0q-0.765625 0 -1.09375 -0.2968712q-0.328125 -0.296875 -0.328125 -0.765625q0 -0.46875 0.328125 -0.765625q0.328125 -0.296875 1.09375 -0.296875l2.5 0zm-2.125 9.046871q0 -1.3125 -0.9375 -2.234375q-0.921875 -0.921875 -2.265625 -0.921875q-1.328125 0 -2.265625 0.921875q-0.921875 0.921875 -0.921875 2.203125q0 1.1875 0.828125 1.9375q0.84375 0.75 2.359375 0.75q1.515625 0 2.359375 -0.75q0.84375 -0.75 0.84375 -1.90625zm11.095825 -9.046871l0 11.359371l2.5625 0q0.765625 0 1.09375 0.296875q0.328125 0.296875 0.328125 0.78125q0 0.46875 -0.328125 0.765625q-0.328125 0.296875 -1.09375 0.296875l-7.265625 0q-0.765625 0 -1.09375 -0.296875q-0.328125 -0.296875 -0.328125 -0.78125q0 -0.46875 0.328125 -0.765625q0.328125 -0.296875 1.09375 -0.296875l2.5625 0l0 -9.234375l-1.71875 0q-0.75 0 -1.09375 -0.2968712q-0.328125 -0.296875 -0.328125 -0.765625q0 -0.46875 0.328125 -0.765625q0.328125 -0.296875 1.09375 -0.296875l3.859375 0zm17.08023 9.859371l-8.75 0q0.328125 0.828125 1.171875 1.34375q0.859375 0.5 2.3125 0.5q1.1875 0 3.15625 -0.5q0.8125 -0.21875 1.109375 -0.21875q0.4375 0 0.71875 0.3125q0.296875 0.296875 0.296875 0.75q0 0.421875 -0.3125 0.71875q-0.421875 0.375 -2.03125 0.734375q-1.609375 0.34375 -3.09375 0.34375q-2.5625 0 -4.109375 -1.4375q-1.53125 -1.453125 -1.53125 -3.578125q0 -2.25 1.65625 -3.65625q1.671875 -1.40625 3.828125 -1.40625q1.3125 0 2.390625 0.453125q1.09375 0.453125 1.625 0.984375q0.75 0.78125 1.234375 1.90625q0.328125 0.796875 0.328125 1.84375l0 0.90625zm-2.359375 -2.140625q-0.484375 -0.921875 -1.28125 -1.375q-0.78125 -0.453125 -1.875 -0.453125q-1.09375 0 -1.890625 0.453125q-0.78125 0.453125 -1.28125 1.375l6.328125 0zm9.8302 1.84375l-1.484375 3.9375l-2.015625 0l-1.78125 -7.328125q-0.59375 -0.03125 -0.890625 -0.328125q-0.296875 -0.296875 -0.296875 -0.734375q0 -0.46875 0.328125 -0.765625q0.328125 -0.296875 1.109375 -0.296875l1.984375 0q0.765625 0 1.09375 0.296875q0.328125 0.296875 0.328125 0.765625q0 0.484375 -0.375 0.8125q-0.28125 0.25 -1.09375 0.25l0.8125 3.390625l1.3125 -3.46875l1.90625 0l1.328125 3.46875l0.828125 -3.390625q-0.78125 0 -1.03125 -0.15625q-0.5 -0.3125 -0.5 -0.90625q0 -0.46875 0.328125 -0.765625q0.328125 -0.296875 1.09375 -0.296875l2.0 0q0.78125 0 1.109375 0.296875q0.328125 0.296875 0.328125 0.765625q0 0.4375 -0.296875 0.734375q-0.28125 0.296875 -0.84375 0.328125l-1.75 7.328125l-1.96875 0l-1.5625 -3.9375zm28.91043 -5.140625q0.375 -0.359375 0.78125 -0.359375q0.453125 0 0.75 0.328125q0.296875 0.328125 0.296875 1.09375l0 1.375q0 0.765625 -0.296875 1.09375q-0.296875 0.3125 -0.765625 0.3125q-0.4375 0 -0.734375 -0.25q-0.21875 -0.1875 -0.34375 -0.765625q-0.125 -0.578125 -0.609375 -0.859375q-0.84375 -0.5 -2.15625 -0.5q-1.515625 0 -2.421875 0.890625q-0.90625 0.890625 -0.90625 2.234375q0 1.25 0.875 1.984375q0.875 0.71875 2.90625 0.71875q1.328125 0 2.171875 -0.265625q0.5 -0.171875 0.9375 -0.5625q0.453125 -0.40625 0.8125 -0.40625q0.4375 0 0.75 0.328125q0.328125 0.3125 0.328125 0.75q0 0.703125 -0.96875 1.34375q-1.4375 0.953125 -4.203125 0.953125q-2.484375 0 -3.875 -1.03125q-1.875 -1.390625 -1.875 -3.796875q0 -2.28125 1.515625 -3.765625q1.53125 -1.5 3.96875 -1.5q0.890625 0 1.640625 0.171875q0.765625 0.15625 1.421875 0.484375zm10.533356 -4.421871l0 11.359371l2.5625 0q0.765625 0 1.09375 0.296875q0.328125 0.296875 0.328125 0.78125q0 0.46875 -0.328125 0.765625q-0.328125 0.296875 -1.09375 0.296875l-7.265625 0q-0.765625 0 -1.09375 -0.296875q-0.328125 -0.296875 -0.328125 -0.78125q0 -0.46875 0.328125 -0.765625q0.328125 -0.296875 1.09375 -0.296875l2.5625 0l0 -9.234375l-1.71875 0q-0.75 0 -1.09375 -0.2968712q-0.328125 -0.296875 -0.328125 -0.765625q0 -0.46875 0.328125 -0.765625q0.328125 -0.296875 1.09375 -0.296875l3.859375 0zm17.0802 9.859371l-8.75 0q0.328125 0.828125 1.171875 1.34375q0.859375 0.5 2.3125 0.5q1.1875 0 3.15625 -0.5q0.8125 -0.21875 1.109375 -0.21875q0.4375 0 0.71875 0.3125q0.296875 0.296875 0.296875 0.75q0 0.421875 -0.3125 0.71875q-0.421875 0.375 -2.03125 0.734375q-1.609375 0.34375 -3.09375 0.34375q-2.5625 0 -4.109375 -1.4375q-1.53125 -1.453125 -1.53125 -3.578125q0 -2.25 1.65625 -3.65625q1.671875 -1.40625 3.828125 -1.40625q1.3125 0 2.390625 0.453125q1.09375 0.453125 1.625 0.984375q0.75 0.78125 1.234375 1.90625q0.328125 0.796875 0.328125 1.84375l0 0.90625zm-2.359375 -2.140625q-0.484375 -0.921875 -1.28125 -1.375q-0.78125 -0.453125 -1.875 -0.453125q-1.09375 0 -1.890625 0.453125q-0.78125 0.453125 -1.28125 1.375l6.328125 0zm11.736481 5.78125l0 -0.5q-0.8125 0.421875 -1.78125 0.640625q-0.96875 0.21875 -1.75 0.21875q-1.71875 0 -2.796875 -0.90625q-1.078125 -0.921875 -1.078125 -2.03125q0 -1.34375 1.375 -2.484375q1.375 -1.15625 3.78125 -1.15625q0.96875 0 2.25 0.203125l0 -0.5q0 -0.484375 -0.421875 -0.78125q-0.40625 -0.3125 -1.5625 -0.3125q-0.953125 0 -2.453125 0.375q-0.5625 0.140625 -0.875 0.140625q-0.4375 0 -0.734375 -0.296875q-0.296875 -0.3125 -0.296875 -0.796875q0 -0.265625 0.109375 -0.46875q0.109375 -0.203125 0.296875 -0.3125q0.1875 -0.125 0.78125 -0.296875q0.78125 -0.21875 1.609375 -0.34375q0.828125 -0.125 1.484375 -0.125q2.0 0 3.09375 0.859375q1.09375 0.859375 1.09375 2.34375l0 4.390625l0.359375 0q0.78125 0 1.109375 0.296875q0.328125 0.296875 0.328125 0.78125q0 0.46875 -0.328125 0.765625q-0.328125 0.296875 -1.109375 0.296875l-2.484375 0zm0 -3.828125q-1.28125 -0.25 -2.375 -0.25q-1.296875 0 -2.234375 0.640625q-0.578125 0.40625 -0.578125 0.828125q0 0.296875 0.28125 0.484375q0.515625 0.34375 1.421875 0.34375q0.765625 0 1.734375 -0.296875q0.984375 -0.3125 1.75 -0.828125l0 -0.921875zm8.7052 -5.625l0 0.71875q0.59375 -0.5 1.296875 -0.75q0.703125 -0.25 1.515625 -0.25q1.90625 0 3.0 1.171875q0.875 0.9375 0.875 2.453125l0 3.96875q0.671875 0 1.0 0.296875q0.328125 0.296875 0.328125 0.78125q0 0.46875 -0.328125 0.765625q-0.328125 0.296875 -1.109375 0.296875l-1.921875 0q-0.765625 0 -1.09375 -0.296875q-0.328125 -0.296875 -0.328125 -0.78125q0 -0.46875 0.3125 -0.765625q0.328125 -0.296875 1.015625 -0.296875l0 -4.03125q0 -0.6875 -0.375 -1.015625q-0.5 -0.421875 -1.46875 -0.421875q-0.75 0 -1.3125 0.296875q-0.546875 0.28125 -1.40625 1.203125l0 3.96875q0.828125 0 1.0625 0.15625q0.515625 0.3125 0.515625 0.921875q0 0.46875 -0.328125 0.765625q-0.328125 0.296875 -1.09375 0.296875l-2.4375 0q-0.765625 0 -1.09375 -0.296875q-0.328125 -0.296875 -0.328125 -0.78125q0 -0.578125 0.5 -0.90625q0.25 -0.15625 1.078125 -0.15625l0 -5.1875q-0.6875 0 -1.015625 -0.296875q-0.3125 -0.296875 -0.3125 -0.765625q0 -0.46875 0.328125 -0.765625q0.328125 -0.296875 1.09375 -0.296875l2.03125 0zm16.002075 -1.03125l0 8.34375l1.4375 0q0.765625 0 1.09375 0.296875q0.328125 0.296875 0.328125 0.78125q0 0.46875 -0.328125 0.765625q-0.328125 0.296875 -1.09375 0.296875l-4.9999695 0q-0.765625 0 -1.09375 -0.296875q-0.328125 -0.296875 -0.328125 -0.78125q0 -0.46875 0.328125 -0.765625q0.328125 -0.296875 1.09375 -0.296875l1.421875 0l0 -8.34375l-2.3125 0l0 2.015625q0 0.765625 -0.296875 1.09375q-0.296875 0.328125 -0.765625 0.328125q-0.46875 0 -0.765625 -0.328125q-0.296875 -0.328125 -0.296875 -1.09375l0 -4.156246l11.0468445 0l0 4.156246q0 0.765625 -0.296875 1.09375q-0.296875 0.328125 -0.765625 0.328125q-0.46875 0 -0.765625 -0.328125q-0.296875 -0.328125 -0.296875 -1.09375l0 -2.015625l-2.34375 0zm17.111511 6.84375l-8.75 0q0.328125 0.828125 1.171875 1.34375q0.859375 0.5 2.3125 0.5q1.1875 0 3.15625 -0.5q0.8125 -0.21875 1.109375 -0.21875q0.4375 0 0.71875 0.3125q0.296875 0.296875 0.296875 0.75q0 0.421875 -0.3125 0.71875q-0.421875 0.375 -2.03125 0.734375q-1.609375 0.34375 -3.09375 0.34375q-2.5625 0 -4.109375 -1.4375q-1.53125 -1.453125 -1.53125 -3.578125q0 -2.25 1.65625 -3.65625q1.671875 -1.40625 3.828125 -1.40625q1.3125 0 2.390625 0.453125q1.09375 0.453125 1.625 0.984375q0.75 0.78125 1.234375 1.90625q0.328125 0.796875 0.328125 1.84375l0 0.90625zm-2.359375 -2.140625q-0.484375 -0.921875 -1.28125 -1.375q-0.78125 -0.453125 -1.875 -0.453125q-1.09375 0 -1.890625 0.453125q-0.78125 0.453125 -1.28125 1.375l6.328125 0zm12.11145 -1.171875q-0.515625 -0.328125 -1.09375 -0.484375q-0.5625 -0.171875 -1.1875 -0.171875q-1.25 0 -1.96875 0.40625q-0.328125 0.1875 -0.328125 0.390625q0 0.234375 0.4375 0.46875q0.328125 0.171875 1.484375 0.328125q2.125 0.28125 2.96875 0.578125q1.09375 0.390625 1.671875 1.15625q0.59375 0.75 0.59375 1.59375q0 1.140625 -1.0 1.921875q-1.453125 1.109375 -3.765625 1.109375q-0.921875 0 -1.71875 -0.171875q-0.78125 -0.15625 -1.4375 -0.46875q-0.15625 0.140625 -0.328125 0.21875q-0.171875 0.0625 -0.359375 0.0625q-0.5 0 -0.796875 -0.328125q-0.296875 -0.328125 -0.296875 -1.09375l0 -0.71875q0 -0.765625 0.296875 -1.09375q0.296875 -0.328125 0.765625 -0.328125q0.390625 0 0.640625 0.21875q0.265625 0.203125 0.421875 0.71875q0.484375 0.421875 1.171875 0.640625q0.6875 0.203125 1.578125 0.203125q1.46875 0 2.28125 -0.453125q0.390625 -0.234375 0.390625 -0.484375q0 -0.40625 -0.546875 -0.6875q-0.5625 -0.265625 -2.28125 -0.453125q-2.578125 -0.265625 -3.4375 -1.046875q-0.875 -0.75 -0.875 -1.875q0 -1.140625 0.96875 -1.90625q1.3125 -1.03125 3.4375 -1.03125q0.75 0 1.421875 0.140625q0.6875 0.140625 1.3125 0.421875q0.203125 -0.140625 0.375 -0.203125q0.171875 -0.078125 0.3125 -0.078125q0.4375 0 0.71875 0.328125q0.296875 0.328125 0.296875 1.09375l0 0.515625q0 0.703125 -0.15625 0.953125q-0.34375 0.484375 -0.90625 0.484375q-0.390625 0 -0.6875 -0.234375q-0.28125 -0.25 -0.375 -0.640625zm9.970825 -0.375l0 4.28125q0 0.6875 0.28125 0.90625q0.4375 0.34375 1.5625 0.34375q1.640625 0 3.015625 -0.6875q0.53125 -0.28125 0.828125 -0.28125q0.421875 0 0.71875 0.3125q0.3125 0.3125 0.3125 0.765625q0 0.421875 -0.328125 0.71875q-0.515625 0.484375 -2.015625 0.90625q-1.5 0.40625 -2.53125 0.40625q-1.984375 0 -2.984375 -0.859375q-1.0 -0.859375 -1.0 -2.109375l0 -4.703125l-0.765625 0q-0.765625 0 -1.09375 -0.296875q-0.328125 -0.296875 -0.328125 -0.765625q0 -0.46875 0.328125 -0.765625q0.328125 -0.296875 1.09375 -0.296875l0.765625 0l0 -1.921875q0 -0.7812462 0.296875 -1.1093712q0.296875 -0.328125 0.78125 -0.328125q0.46875 0 0.765625 0.328125q0.296875 0.328125 0.296875 1.1093712l0 1.921875l3.953125 0q0.765625 0 1.09375 0.296875q0.328125 0.296875 0.328125 0.765625q0 0.46875 -0.328125 0.765625q-0.328125 0.296875 -1.09375 0.296875l-3.953125 0zm25.5979 0l0 4.28125q0 0.6875 0.28125 0.90625q0.4375 0.34375 1.5625 0.34375q1.640625 0 3.015625 -0.6875q0.53125 -0.28125 0.828125 -0.28125q0.421875 0 0.71875 0.3125q0.3125 0.3125 0.3125 0.765625q0 0.421875 -0.328125 0.71875q-0.515625 0.484375 -2.015625 0.90625q-1.5 0.40625 -2.53125 0.40625q-1.984375 0 -2.984375 -0.859375q-1.0 -0.859375 -1.0 -2.109375l0 -4.703125l-0.765625 0q-0.765625 0 -1.09375 -0.296875q-0.328125 -0.296875 -0.328125 -0.765625q0 -0.46875 0.328125 -0.765625q0.328125 -0.296875 1.09375 -0.296875l0.765625 0l0 -1.921875q0 -0.7812462 0.296875 -1.1093712q0.296875 -0.328125 0.78125 -0.328125q0.46875 0 0.765625 0.328125q0.296875 0.328125 0.296875 1.1093712l0 1.921875l3.953125 0q0.765625 0 1.09375 0.296875q0.328125 0.296875 0.328125 0.765625q0 0.46875 -0.328125 0.765625q-0.328125 0.296875 -1.09375 0.296875l-3.953125 0zm18.67395 3.6875l-8.75 0q0.328125 0.828125 1.171875 1.34375q0.859375 0.5 2.3125 0.5q1.1875 0 3.15625 -0.5q0.8125 -0.21875 1.109375 -0.21875q0.4375 0 0.71875 0.3125q0.296875 0.296875 0.296875 0.75q0 0.421875 -0.3125 0.71875q-0.421875 0.375 -2.03125 0.734375q-1.609375 0.34375 -3.09375 0.34375q-2.5625 0 -4.109375 -1.4375q-1.53125 -1.453125 -1.53125 -3.578125q0 -2.25 1.65625 -3.65625q1.671875 -1.40625 3.828125 -1.40625q1.3125 0 2.390625 0.453125q1.09375 0.453125 1.625 0.984375q0.75 0.78125 1.234375 1.90625q0.328125 0.796875 0.328125 1.84375l0 0.90625zm-2.359375 -2.140625q-0.484375 -0.921875 -1.28125 -1.375q-0.78125 -0.453125 -1.875 -0.453125q-1.09375 0 -1.890625 0.453125q-0.78125 0.453125 -1.28125 1.375l6.328125 0zm12.11145 -1.171875q-0.515625 -0.328125 -1.09375 -0.484375q-0.5625 -0.171875 -1.1875 -0.171875q-1.25 0 -1.96875 0.40625q-0.328125 0.1875 -0.328125 0.390625q0 0.234375 0.4375 0.46875q0.328125 0.171875 1.484375 0.328125q2.125 0.28125 2.96875 0.578125q1.09375 0.390625 1.671875 1.15625q0.59375 0.75 0.59375 1.59375q0 1.140625 -1.0 1.921875q-1.453125 1.109375 -3.765625 1.109375q-0.921875 0 -1.71875 -0.171875q-0.78125 -0.15625 -1.4375 -0.46875q-0.15625 0.140625 -0.328125 0.21875q-0.171875 0.0625 -0.359375 0.0625q-0.5 0 -0.796875 -0.328125q-0.296875 -0.328125 -0.296875 -1.09375l0 -0.71875q0 -0.765625 0.296875 -1.09375q0.296875 -0.328125 0.765625 -0.328125q0.390625 0 0.640625 0.21875q0.265625 0.203125 0.421875 0.71875q0.484375 0.421875 1.171875 0.640625q0.6875 0.203125 1.578125 0.203125q1.46875 0 2.28125 -0.453125q0.390625 -0.234375 0.390625 -0.484375q0 -0.40625 -0.546875 -0.6875q-0.5625 -0.265625 -2.28125 -0.453125q-2.578125 -0.265625 -3.4375 -1.046875q-0.875 -0.75 -0.875 -1.875q0 -1.140625 0.96875 -1.90625q1.3125 -1.03125 3.4375 -1.03125q0.75 0 1.421875 0.140625q0.6875 0.140625 1.3125 0.421875q0.203125 -0.140625 0.375 -0.203125q0.171875 -0.078125 0.3125 -0.078125q0.4375 0 0.71875 0.328125q0.296875 0.328125 0.296875 1.09375l0 0.515625q0 0.703125 -0.15625 0.953125q-0.34375 0.484375 -0.90625 0.484375q-0.390625 0 -0.6875 -0.234375q-0.28125 -0.25 -0.375 -0.640625zm9.970825 -0.375l0 4.28125q0 0.6875 0.28125 0.90625q0.4375 0.34375 1.5625 0.34375q1.640625 0 3.015625 -0.6875q0.53125 -0.28125 0.828125 -0.28125q0.421875 0 0.71875 0.3125q0.3125 0.3125 0.3125 0.765625q0 0.421875 -0.328125 0.71875q-0.515625 0.484375 -2.015625 0.90625q-1.5 0.40625 -2.53125 0.40625q-1.984375 0 -2.984375 -0.859375q-1.0 -0.859375 -1.0 -2.109375l0 -4.703125l-0.765625 0q-0.765625 0 -1.09375 -0.296875q-0.328125 -0.296875 -0.328125 -0.765625q0 -0.46875 0.328125 -0.765625q0.328125 -0.296875 1.09375 -0.296875l0.765625 0l0 -1.921875q0 -0.7812462 0.296875 -1.1093712q0.296875 -0.328125 0.78125 -0.328125q0.46875 0 0.765625 0.328125q0.296875 0.328125 0.296875 1.1093712l0 1.921875l3.953125 0q0.765625 0 1.09375 0.296875q0.328125 0.296875 0.328125 0.765625q0 0.46875 -0.328125 0.765625q-0.328125 0.296875 -1.09375 0.296875l-3.953125 0z" fill-rule="nonzero"/><path fill="#6aa84f" d="m378.45407 379.08923l207.77951 0l0 98.20474l-207.77951 0z" fill-rule="evenodd"/><path stroke="#000000" stroke-width="1.0" stroke-linejoin="round" stroke-linecap="butt" d="m378.45407 379.08923l207.77951 0l0 98.20474l-207.77951 0z" fill-rule="evenodd"/><path fill="#ffffff" d="m453.85248 420.40598l3.078125 0l0 9.65625q0 1.90625 -0.34375 2.921875q-0.4375 1.328125 -1.625 2.140625q-1.171875 0.8125 -3.09375 0.8125q-2.265625 0 -3.484375 -1.265625q-1.21875 -1.265625 -1.234375 -3.71875l2.90625 -0.328125q0.0625 1.3125 0.390625 1.84375q0.5 0.828125 1.515625 0.828125q1.03125 0 1.453125 -0.578125q0.4375 -0.59375 0.4375 -2.453125l0 -9.859375zm6.3304443 0l3.078125 0l0 8.265625q0 1.96875 0.125 2.546875q0.1875 0.9375 0.9375 1.515625q0.75 0.5625 2.03125 0.5625q1.3125 0 1.984375 -0.53125q0.671875 -0.546875 0.796875 -1.328125q0.140625 -0.78125 0.140625 -2.59375l0 -8.4375l3.078125 0l0 8.015625q0 2.75 -0.25 3.890625q-0.25 1.125 -0.921875 1.90625q-0.671875 0.78125 -1.796875 1.25q-1.125 0.46875 -2.9375 0.46875q-2.1875 0 -3.3125 -0.5q-1.125 -0.515625 -1.78125 -1.3125q-0.65625 -0.8125 -0.875 -1.703125q-0.296875 -1.3125 -0.296875 -3.875l0 -8.140625zm25.464996 15.265625l-2.921875 0l0 -5.640625q0 -1.796875 -0.1875 -2.3125q-0.1875 -0.53125 -0.609375 -0.828125q-0.421875 -0.296875 -1.015625 -0.296875q-0.765625 0 -1.375 0.421875q-0.59375 0.421875 -0.828125 1.109375q-0.21875 0.6875 -0.21875 2.53125l0 5.015625l-2.921875 0l0 -11.0625l2.71875 0l0 1.625q1.4375 -1.875 3.640625 -1.875q0.96875 0 1.765625 0.359375q0.8125 0.34375 1.21875 0.890625q0.40625 0.53125 0.5625 1.21875q0.171875 0.6875 0.171875 1.96875l0 6.875zm2.9655762 -12.5625l0 -2.703125l2.921875 0l0 2.703125l-2.921875 0zm0 12.5625l0 -11.0625l2.921875 0l0 11.0625l-2.921875 0zm11.003784 -11.0625l0 2.328125l-2.0 0l0 4.46875q0 1.34375 0.046875 1.578125q0.0625 0.21875 0.265625 0.375q0.203125 0.140625 0.5 0.140625q0.40625 0 1.171875 -0.28125l0.25 2.265625q-1.015625 0.4375 -2.3125 0.4375q-0.796875 0 -1.4375 -0.265625q-0.625 -0.265625 -0.921875 -0.6875q-0.296875 -0.421875 -0.40625 -1.140625q-0.09375 -0.515625 -0.09375 -2.0625l0 -4.828125l-1.34375 0l0 -2.328125l1.34375 0l0 -2.1875l2.9375 -1.71875l0 3.90625l2.0 0zm7.371826 7.140625l2.90625 -0.3125q0.125 1.0 0.734375 1.578125q0.625 0.578125 1.4218445 0.578125q0.921875 0 1.546875 -0.75q0.640625 -0.75 0.640625 -2.25q0 -1.40625 -0.625 -2.109375q-0.625 -0.703125 -1.6405945 -0.703125q-1.265625 0 -2.265625 1.125l-2.375 -0.34375l1.5 -7.953125l7.7499695 0l0 2.75l-5.5312195 0l-0.453125 2.578125q0.984375 -0.484375 1.9999695 -0.484375q1.953125 0 3.296875 1.421875q1.359375 1.40625 1.359375 3.671875q0 1.890625 -1.09375 3.359375q-1.484375 2.03125 -4.140625 2.03125q-2.1093445 0 -3.4530945 -1.140625q-1.328125 -1.140625 -1.578125 -3.046875z" fill-rule="nonzero"/><path fill="#6aa84f" d="m103.83343 564.38947l757.02 0l0 135.3194l-757.02 0z" fill-rule="evenodd"/><path stroke="#000000" stroke-width="1.0" stroke-linejoin="round" stroke-linecap="butt" d="m103.83343 564.38947l757.02 0l0 135.3194l-757.02 0z" fill-rule="evenodd"/><path fill="#b6d7a8" d="m229.04185 580.91077l187.572 0l0 101.91858l-187.572 0z" fill-rule="evenodd"/><path stroke="#000000" stroke-width="1.0" stroke-linejoin="round" stroke-linecap="butt" d="m229.04185 580.91077l187.572 0l0 101.91858l-187.572 0z" fill-rule="evenodd"/><path fill="#000000" d="m260.42603 613.3213l0.234375 1.453125q-0.6875 0.140625 -1.234375 0.140625q-0.890625 0 -1.390625 -0.28125q-0.484375 -0.28125 -0.6875 -0.734375q-0.203125 -0.46875 -0.203125 -1.9375l0 -5.578125l-1.203125 0l0 -1.265625l1.203125 0l0 -2.390625l1.625 -0.984375l0 3.375l1.65625 0l0 1.265625l-1.65625 0l0 5.671875q0 0.6875 0.078125 0.890625q0.09375 0.203125 0.28125 0.328125q0.203125 0.109375 0.578125 0.109375q0.265625 0 0.71875 -0.0625zm8.230164 -1.640625l1.6875 0.203125q-0.40625 1.484375 -1.484375 2.3125q-1.078125 0.8125 -2.765625 0.8125q-2.125 0 -3.375 -1.296875q-1.234375 -1.3125 -1.234375 -3.671875q0 -2.453125 1.25 -3.796875q1.265625 -1.34375 3.265625 -1.34375q1.9375 0 3.15625 1.328125q1.234375 1.3125 1.234375 3.703125q0 0.15625 0 0.4375l-7.21875 0q0.09375 1.59375 0.90625 2.453125q0.8125 0.84375 2.015625 0.84375q0.90625 0 1.546875 -0.46875q0.640625 -0.484375 1.015625 -1.515625zm-5.390625 -2.65625l5.40625 0q-0.109375 -1.21875 -0.625 -1.828125q-0.78125 -0.953125 -2.03125 -0.953125q-1.125 0 -1.90625 0.765625q-0.765625 0.75 -0.84375 2.015625zm8.485107 2.875l1.625 -0.25q0.125 0.96875 0.75 1.5q0.625 0.515625 1.75 0.515625q1.125 0 1.671875 -0.453125q0.546875 -0.46875 0.546875 -1.09375q0 -0.546875 -0.484375 -0.875q-0.328125 -0.21875 -1.671875 -0.546875q-1.8125 -0.46875 -2.515625 -0.796875q-0.6875 -0.328125 -1.046875 -0.90625q-0.359375 -0.59375 -0.359375 -1.3125q0 -0.640625 0.296875 -1.1875q0.296875 -0.5625 0.8125 -0.921875q0.375 -0.28125 1.03125 -0.46875q0.671875 -0.203125 1.421875 -0.203125q1.140625 0 2.0 0.328125q0.859375 0.328125 1.265625 0.890625q0.421875 0.5625 0.578125 1.5l-1.609375 0.21875q-0.109375 -0.75 -0.640625 -1.171875q-0.515625 -0.421875 -1.46875 -0.421875q-1.140625 0 -1.625 0.375q-0.46875 0.375 -0.46875 0.875q0 0.3125 0.1875 0.578125q0.203125 0.265625 0.640625 0.4375q0.234375 0.09375 1.4375 0.421875q1.75 0.453125 2.4375 0.75q0.6875 0.296875 1.078125 0.859375q0.390625 0.5625 0.390625 1.40625q0 0.828125 -0.484375 1.546875q-0.46875 0.71875 -1.375 1.125q-0.90625 0.390625 -2.046875 0.390625q-1.875 0 -2.875 -0.78125q-0.984375 -0.78125 -1.25 -2.328125zm13.5625 1.421875l0.234375 1.453125q-0.6875 0.140625 -1.234375 0.140625q-0.890625 0 -1.390625 -0.28125q-0.484375 -0.28125 -0.6875 -0.734375q-0.203125 -0.46875 -0.203125 -1.9375l0 -5.578125l-1.203125 0l0 -1.265625l1.203125 0l0 -2.390625l1.625 -0.984375l0 3.375l1.65625 0l0 1.265625l-1.65625 0l0 5.671875q0 0.6875 0.078125 0.890625q0.09375 0.203125 0.28125 0.328125q0.203125 0.109375 0.578125 0.109375q0.265625 0 0.71875 -0.0625zm4.1364136 1.46875l-3.53125 -13.359375l1.8125 0l2.03125 8.765625q0.328125 1.375 0.5625 2.71875q0.5 -2.140625 0.59375 -2.46875l2.546875 -9.015625l2.125 0l1.921875 6.765625q0.71875 2.515625 1.03125 4.71875q0.265625 -1.265625 0.671875 -2.890625l2.09375 -8.59375l1.78125 0l-3.671875 13.359375l-1.703125 0l-2.8125 -10.171875q-0.359375 -1.28125 -0.421875 -1.5625q-0.203125 0.90625 -0.390625 1.5625l-2.828125 10.171875l-1.8125 0zm21.365173 -3.109375l1.6875 0.203125q-0.40625 1.484375 -1.484375 2.3125q-1.078125 0.8125 -2.765625 0.8125q-2.125 0 -3.375 -1.296875q-1.234375 -1.3125 -1.234375 -3.671875q0 -2.453125 1.25 -3.796875q1.265625 -1.34375 3.265625 -1.34375q1.9375 0 3.15625 1.328125q1.234375 1.3125 1.234375 3.703125q0 0.15625 0 0.4375l-7.21875 0q0.09375 1.59375 0.90625 2.453125q0.8125 0.84375 2.015625 0.84375q0.90625 0 1.546875 -0.46875q0.640625 -0.484375 1.015625 -1.515625zm-5.390625 -2.65625l5.40625 0q-0.109375 -1.21875 -0.625 -1.828125q-0.78125 -0.953125 -2.03125 -0.953125q-1.125 0 -1.90625 0.765625q-0.765625 0.75 -0.84375 2.015625zm10.641357 5.765625l-1.515625 0l0 -13.359375l1.640625 0l0 4.765625q1.046875 -1.296875 2.65625 -1.296875q0.890625 0 1.6875 0.359375q0.796875 0.359375 1.3125 1.015625q0.515625 0.640625 0.796875 1.5625q0.296875 0.921875 0.296875 1.96875q0 2.484375 -1.234375 3.84375q-1.21875 1.359375 -2.953125 1.359375q-1.703125 0 -2.6875 -1.4375l0 1.21875zm-0.015625 -4.90625q0 1.734375 0.484375 2.515625q0.765625 1.265625 2.09375 1.265625q1.078125 0 1.859375 -0.9375q0.78125 -0.9375 0.78125 -2.78125q0 -1.890625 -0.75 -2.796875q-0.75 -0.90625 -1.828125 -0.90625q-1.0625 0 -1.859375 0.9375q-0.78125 0.9375 -0.78125 2.703125zm8.235077 2.015625l1.625 -0.25q0.125 0.96875 0.75 1.5q0.625 0.515625 1.75 0.515625q1.125 0 1.671875 -0.453125q0.546875 -0.46875 0.546875 -1.09375q0 -0.546875 -0.484375 -0.875q-0.328125 -0.21875 -1.671875 -0.546875q-1.8125 -0.46875 -2.515625 -0.796875q-0.6875 -0.328125 -1.046875 -0.90625q-0.359375 -0.59375 -0.359375 -1.3125q0 -0.640625 0.296875 -1.1875q0.296875 -0.5625 0.8125 -0.921875q0.375 -0.28125 1.03125 -0.46875q0.671875 -0.203125 1.421875 -0.203125q1.140625 0 2.0 0.328125q0.859375 0.328125 1.265625 0.890625q0.421875 0.5625 0.578125 1.5l-1.609375 0.21875q-0.109375 -0.75 -0.640625 -1.171875q-0.515625 -0.421875 -1.46875 -0.421875q-1.140625 0 -1.625 0.375q-0.46875 0.375 -0.46875 0.875q0 0.3125 0.1875 0.578125q0.203125 0.265625 0.640625 0.4375q0.234375 0.09375 1.4375 0.421875q1.75 0.453125 2.4375 0.75q0.6875 0.296875 1.078125 0.859375q0.390625 0.5625 0.390625 1.40625q0 0.828125 -0.484375 1.546875q-0.46875 0.71875 -1.375 1.125q-0.90625 0.390625 -2.046875 0.390625q-1.875 0 -2.875 -0.78125q-0.984375 -0.78125 -1.25 -2.328125zm9.984375 -8.578125l0 -1.890625l1.640625 0l0 1.890625l-1.640625 0zm0 11.46875l0 -9.671875l1.640625 0l0 9.671875l-1.640625 0zm7.7229614 -1.46875l0.234375 1.453125q-0.6875 0.140625 -1.234375 0.140625q-0.890625 0 -1.390625 -0.28125q-0.484375 -0.28125 -0.6875 -0.734375q-0.203125 -0.46875 -0.203125 -1.9375l0 -5.578125l-1.203125 0l0 -1.265625l1.203125 0l0 -2.390625l1.625 -0.984375l0 3.375l1.65625 0l0 1.265625l-1.65625 0l0 5.671875q0 0.6875 0.078125 0.890625q0.09375 0.203125 0.28125 0.328125q0.203125 0.109375 0.578125 0.109375q0.265625 0 0.71875 -0.0625zm8.230164 -1.640625l1.6875 0.203125q-0.40625 1.484375 -1.484375 2.3125q-1.078125 0.8125 -2.765625 0.8125q-2.125 0 -3.375 -1.296875q-1.234375 -1.3125 -1.234375 -3.671875q0 -2.453125 1.25 -3.796875q1.265625 -1.34375 3.265625 -1.34375q1.9375 0 3.15625 1.328125q1.234375 1.3125 1.234375 3.703125q0 0.15625 0 0.4375l-7.21875 0q0.09375 1.59375 0.90625 2.453125q0.8125 0.84375 2.015625 0.84375q0.90625 0 1.546875 -0.46875q0.640625 -0.484375 1.015625 -1.515625zm-5.390625 -2.65625l5.40625 0q-0.109375 -1.21875 -0.625 -1.828125q-0.78125 -0.953125 -2.03125 -0.953125q-1.125 0 -1.90625 0.765625q-0.765625 0.75 -0.84375 2.015625zm8.485107 2.875l1.625 -0.25q0.125 0.96875 0.75 1.5q0.625 0.515625 1.75 0.515625q1.125 0 1.671875 -0.453125q0.546875 -0.46875 0.546875 -1.09375q0 -0.546875 -0.484375 -0.875q-0.328125 -0.21875 -1.671875 -0.546875q-1.8125 -0.46875 -2.515625 -0.796875q-0.6875 -0.328125 -1.046875 -0.90625q-0.359375 -0.59375 -0.359375 -1.3125q0 -0.640625 0.296875 -1.1875q0.296875 -0.5625 0.8125 -0.921875q0.375 -0.28125 1.03125 -0.46875q0.671875 -0.203125 1.421875 -0.203125q1.140625 0 2.0 0.328125q0.859375 0.328125 1.265625 0.890625q0.421875 0.5625 0.578125 1.5l-1.609375 0.21875q-0.109375 -0.75 -0.640625 -1.171875q-0.515625 -0.421875 -1.46875 -0.421875q-1.140625 0 -1.625 0.375q-0.46875 0.375 -0.46875 0.875q0 0.3125 0.1875 0.578125q0.203125 0.265625 0.640625 0.4375q0.234375 0.09375 1.4375 0.421875q1.75 0.453125 2.4375 0.75q0.6875 0.296875 1.078125 0.859375q0.390625 0.5625 0.390625 1.40625q0 0.828125 -0.484375 1.546875q-0.46875 0.71875 -1.375 1.125q-0.90625 0.390625 -2.046875 0.390625q-1.875 0 -2.875 -0.78125q-0.984375 -0.78125 -1.25 -2.328125zm13.109375 6.8125q-1.359375 -1.703125 -2.296875 -4.0q-0.9375 -2.296875 -0.9375 -4.765625q0 -2.15625 0.703125 -4.140625q0.828125 -2.3125 2.53125 -4.59375l1.171875 0q-1.09375 1.890625 -1.453125 2.703125q-0.546875 1.25 -0.875 2.625q-0.390625 1.703125 -0.390625 3.421875q0 4.375 2.71875 8.75l-1.171875 0zm3.540802 -3.921875l0 -1.875l1.875 0l0 1.875l-1.875 0zm5.1832886 0l0 -1.875l1.875 0l0 1.875l-1.875 0zm5.183319 0l0 -1.875l1.875 0l0 1.875l-1.875 0zm5.8082886 3.921875l-1.1875 0q2.734375 -4.375 2.734375 -8.75q0 -1.71875 -0.390625 -3.390625q-0.3125 -1.375 -0.875 -2.625q-0.359375 -0.828125 -1.46875 -2.734375l1.1875 0q1.703125 2.28125 2.53125 4.59375q0.6875 1.984375 0.6875 4.140625q0 2.46875 -0.9375 4.765625q-0.9375 2.296875 -2.28125 4.0z" fill-rule="nonzero"/><path fill="#000000" d="m240.8231 638.12317l0 3.515625q0.875 -1.03125 2.109375 -1.03125q0.640625 0 1.140625 0.234375q0.515625 0.234375 0.765625 0.59375q0.25 0.359375 0.34375 0.8125q0.109375 0.4375 0.109375 1.375l0 4.046875l-1.828125 0l0 -3.65625q0 -1.078125 -0.109375 -1.375q-0.109375 -0.296875 -0.375 -0.46875q-0.265625 -0.171875 -0.65625 -0.171875q-0.453125 0 -0.8125 0.234375q-0.359375 0.21875 -0.53125 0.671875q-0.15625 0.4375 -0.15625 1.296875l0 3.46875l-1.828125 0l0 -9.546875l1.828125 0zm5.8913574 6.0q0 -0.921875 0.453125 -1.765625q0.453125 -0.859375 1.265625 -1.296875q0.828125 -0.453125 1.84375 -0.453125q1.5625 0 2.5625 1.015625q1.015625 1.015625 1.015625 2.578125q0 1.5625 -1.015625 2.59375q-1.015625 1.03125 -2.546875 1.03125q-0.953125 0 -1.8125 -0.421875q-0.859375 -0.4375 -1.3125 -1.265625q-0.453125 -0.828125 -0.453125 -2.015625zm1.875 0.09375q0 1.03125 0.484375 1.578125q0.5 0.546875 1.203125 0.546875q0.71875 0 1.203125 -0.546875q0.484375 -0.546875 0.484375 -1.59375q0 -1.015625 -0.484375 -1.5625q-0.484375 -0.546875 -1.203125 -0.546875q-0.703125 0 -1.203125 0.546875q-0.484375 0.546875 -0.484375 1.578125zm6.0476074 1.484375l1.8281097 -0.28125q0.125 0.53125 0.484375 0.8125q0.359375 0.265625 1.0 0.265625q0.703125 0 1.0625 -0.25q0.25 -0.1875 0.25 -0.484375q0 -0.21875 -0.140625 -0.359375q-0.125 -0.125 -0.609375 -0.234375q-2.203125 -0.484375 -2.7968597 -0.890625q-0.828125 -0.5625 -0.828125 -1.5625q0 -0.890625 0.703125 -1.5q0.71873474 -0.609375 2.2031097 -0.609375q1.421875 0 2.109375 0.46875q0.703125 0.453125 0.953125 1.359375l-1.71875 0.3125q-0.109375 -0.40625 -0.421875 -0.609375q-0.3125 -0.21875 -0.890625 -0.21875q-0.71875 0 -1.03125 0.203125q-0.203125 0.140625 -0.203125 0.359375q0 0.203125 0.1875 0.34375q0.234375 0.171875 1.6875 0.515625q1.46875 0.328125 2.0625 0.8125q0.5625 0.484375 0.5625 1.359375q0 0.953125 -0.796875 1.640625q-0.78125 0.671875 -2.34375 0.671875q-1.40625 0 -2.2343597 -0.5625q-0.828125 -0.578125 -1.078125 -1.5625zm11.22496 -4.9375l0 1.453125l-1.25 0l0 2.78125q0 0.84375 0.03125 0.984375q0.046875 0.140625 0.171875 0.234375q0.125 0.09375 0.3125 0.09375q0.25 0 0.734375 -0.171875l0.15625 1.421875q-0.640625 0.265625 -1.453125 0.265625q-0.484375 0 -0.890625 -0.15625q-0.390625 -0.171875 -0.578125 -0.4375q-0.1875 -0.265625 -0.265625 -0.71875q-0.046875 -0.3125 -0.046875 -1.28125l0 -3.015625l-0.84375 0l0 -1.453125l0.84375 0l0 -1.375l1.828125 -1.078125l0 2.453125l1.25 0zm0.86026 1.59375l0 -1.671875l6.671875 0l0 1.671875l-6.671875 0zm0 2.890625l0 -1.6875l6.671875 0l0 1.6875l-6.671875 0z" fill-rule="nonzero"/><path fill="#010000" fill-opacity="0.0" d="m273.95883 635.60443l109.0979 0l0 15.32605l-109.0979 0l0 -15.32605z" fill-rule="nonzero"/><path fill="#000099" d="m276.20883 647.67004l-2.1875 -6.90625l1.765625 0l1.296875 4.53125l1.203125 -4.53125l1.75 0l1.15625 4.53125l1.328125 -4.53125l1.796875 0l-2.21875 6.90625l-1.75 0l-1.203125 -4.4375l-1.171875 4.4375l-1.765625 0zm10.367035 0l-2.1875 -6.90625l1.765625 0l1.296875 4.53125l1.203125 -4.53125l1.75 0l1.15625 4.53125l1.328125 -4.53125l1.796875 0l-2.21875 6.90625l-1.75 0l-1.203125 -4.4375l-1.171875 4.4375l-1.765625 0zm10.367065 0l-2.1875 -6.90625l1.765625 0l1.296875 4.53125l1.203125 -4.53125l1.75 0l1.15625 4.53125l1.328125 -4.53125l1.796875 0l-2.21875 6.90625l-1.75 0l-1.203125 -4.4375l-1.171875 4.4375l-1.765625 0zm8.575378 0l0 -1.828125l1.828125 0l0 1.828125l-1.828125 0zm3.5310974 0.453125l2.09375 0.25q0.046875 0.375 0.25 0.5q0.25 0.203125 0.8125 0.203125q0.71875 0 1.078125 -0.21875q0.234375 -0.140625 0.359375 -0.453125q0.078125 -0.234375 0.078125 -0.84375l0 -1.015625q-0.8125 1.125 -2.0625 1.125q-1.390625 0 -2.203125 -1.171875q-0.640625 -0.9375 -0.640625 -2.328125q0 -1.734375 0.828125 -2.640625q0.84375 -0.921875 2.09375 -0.921875q1.28125 0 2.109375 1.125l0 -0.96875l1.703125 0l0 6.203125q0 1.21875 -0.203125 1.8125q-0.1875 0.609375 -0.5625 0.953125q-0.359375 0.359375 -0.96875 0.546875q-0.609375 0.203125 -1.53125 0.203125q-1.765625 0 -2.5 -0.609375q-0.734375 -0.609375 -0.734375 -1.53125q0 -0.09375 0 -0.21875zm1.640625 -4.046875q0 1.09375 0.421875 1.609375q0.4375 0.5 1.046875 0.5q0.671875 0 1.140625 -0.515625q0.46875 -0.53125 0.46875 -1.546875q0 -1.078125 -0.453125 -1.59375q-0.4375 -0.53125 -1.109375 -0.53125q-0.65625 0 -1.09375 0.515625q-0.421875 0.515625 -0.421875 1.5625zm6.2507324 0.046875q0 -0.921875 0.453125 -1.765625q0.453125 -0.859375 1.265625 -1.296875q0.828125 -0.453125 1.84375 -0.453125q1.5625 0 2.5625 1.015625q1.015625 1.015625 1.015625 2.578125q0 1.5625 -1.015625 2.59375q-1.015625 1.03125 -2.546875 1.03125q-0.953125 0 -1.8125 -0.421875q-0.859375 -0.4375 -1.3125 -1.265625q-0.453125 -0.828125 -0.453125 -2.015625zm1.875 0.09375q0 1.03125 0.484375 1.578125q0.5 0.546875 1.203125 0.546875q0.71875 0 1.203125 -0.546875q0.484375 -0.546875 0.484375 -1.59375q0 -1.015625 -0.484375 -1.5625q-0.484375 -0.546875 -1.203125 -0.546875q-0.703125 0 -1.203125 0.546875q-0.484375 0.546875 -0.484375 1.578125zm6.2663574 -0.09375q0 -0.921875 0.453125 -1.765625q0.453125 -0.859375 1.265625 -1.296875q0.828125 -0.453125 1.84375 -0.453125q1.5625 0 2.5625 1.015625q1.015625 1.015625 1.015625 2.578125q0 1.5625 -1.015625 2.59375q-1.015625 1.03125 -2.546875 1.03125q-0.953125 0 -1.8125 -0.421875q-0.859375 -0.4375 -1.3125 -1.265625q-0.453125 -0.828125 -0.453125 -2.015625zm1.875 0.09375q0 1.03125 0.484375 1.578125q0.5 0.546875 1.203125 0.546875q0.71875 0 1.203125 -0.546875q0.484375 -0.546875 0.484375 -1.59375q0 -1.015625 -0.484375 -1.5625q-0.484375 -0.546875 -1.203125 -0.546875q-0.703125 0 -1.203125 0.546875q-0.484375 0.546875 -0.484375 1.578125zm6.5163574 3.90625l2.09375 0.25q0.046875 0.375 0.25 0.5q0.25 0.203125 0.8125 0.203125q0.71875 0 1.078125 -0.21875q0.234375 -0.140625 0.359375 -0.453125q0.078125 -0.234375 0.078125 -0.84375l0 -1.015625q-0.8125 1.125 -2.0625 1.125q-1.390625 0 -2.203125 -1.171875q-0.640625 -0.9375 -0.640625 -2.328125q0 -1.734375 0.828125 -2.640625q0.84375 -0.921875 2.09375 -0.921875q1.28125 0 2.109375 1.125l0 -0.96875l1.703125 0l0 6.203125q0 1.21875 -0.203125 1.8125q-0.1875 0.609375 -0.5625 0.953125q-0.359375 0.359375 -0.96875 0.546875q-0.609375 0.203125 -1.53125 0.203125q-1.765625 0 -2.5 -0.609375q-0.734375 -0.609375 -0.734375 -1.53125q0 -0.09375 0 -0.21875zm1.640625 -4.046875q0 1.09375 0.421875 1.609375q0.4375 0.5 1.046875 0.5q0.671875 0 1.140625 -0.515625q0.46875 -0.53125 0.46875 -1.546875q0 -1.078125 -0.453125 -1.59375q-0.4375 -0.53125 -1.109375 -0.53125q-0.65625 0 -1.09375 0.515625q-0.421875 0.515625 -0.421875 1.5625zm6.6726074 3.59375l0 -9.546875l1.828125 0l0 9.546875l-1.828125 0zm7.703003 -2.203125l1.828125 0.3125q-0.34375 1.0 -1.109375 1.53125q-0.765625 0.515625 -1.890625 0.515625q-1.8125 0 -2.671875 -1.171875q-0.6875 -0.953125 -0.6875 -2.390625q0 -1.71875 0.890625 -2.6875q0.90625 -0.96875 2.28125 -0.96875q1.546875 0 2.4375 1.015625q0.890625 1.015625 0.84375 3.125l-4.578125 0q0.015625 0.8125 0.4375 1.265625q0.421875 0.453125 1.0625 0.453125q0.421875 0 0.71875 -0.234375q0.296875 -0.234375 0.4375 -0.765625zm0.109375 -1.84375q-0.015625 -0.796875 -0.40625 -1.203125q-0.390625 -0.421875 -0.953125 -0.421875q-0.59375 0 -0.984375 0.4375q-0.390625 0.4375 -0.390625 1.1875l2.734375 0zm3.3031006 4.046875l0 -1.828125l1.828125 0l0 1.828125l-1.828125 0zm9.734222 -4.875l-1.796875 0.328125q-0.09375 -0.53125 -0.421875 -0.796875q-0.328125 -0.28125 -0.828125 -0.28125q-0.6875 0 -1.09375 0.46875q-0.40625 0.46875 -0.40625 1.578125q0 1.234375 0.40625 1.75q0.421875 0.5 1.109375 0.5q0.53125 0 0.859375 -0.296875q0.328125 -0.296875 0.46875 -1.03125l1.796875 0.3125q-0.28125 1.234375 -1.078125 1.875q-0.796875 0.625 -2.125 0.625q-1.515625 0 -2.421875 -0.953125q-0.90625 -0.953125 -0.90625 -2.65625q0 -1.703125 0.90625 -2.65625q0.90625 -0.953125 2.453125 -0.953125q1.265625 0 2.0 0.546875q0.75 0.53125 1.078125 1.640625zm0.9593506 1.328125q0 -0.921875 0.453125 -1.765625q0.453125 -0.859375 1.265625 -1.296875q0.828125 -0.453125 1.84375 -0.453125q1.5625 0 2.5625 1.015625q1.015625 1.015625 1.015625 2.578125q0 1.5625 -1.015625 2.59375q-1.015625 1.03125 -2.546875 1.03125q-0.953125 0 -1.8125 -0.421875q-0.859375 -0.4375 -1.3125 -1.265625q-0.453125 -0.828125 -0.453125 -2.015625zm1.875 0.09375q0 1.03125 0.484375 1.578125q0.5 0.546875 1.203125 0.546875q0.71875 0 1.203125 -0.546875q0.484375 -0.546875 0.484375 -1.59375q0 -1.015625 -0.484375 -1.5625q-0.484375 -0.546875 -1.203125 -0.546875q-0.703125 0 -1.203125 0.546875q-0.484375 0.546875 -0.484375 1.578125zm6.5476074 -3.453125l1.6875 0l0 0.9375q0.90625 -1.09375 2.15625 -1.09375q0.671875 0 1.15625 0.28125q0.484375 0.265625 0.796875 0.8125q0.453125 -0.546875 0.984375 -0.8125q0.53125 -0.28125 1.125 -0.28125q0.765625 0 1.28125 0.3125q0.53125 0.296875 0.796875 0.90625q0.1875 0.4375 0.1875 1.421875l0 4.421875l-1.828125 0l0 -3.953125q0 -1.03125 -0.1875 -1.328125q-0.25 -0.390625 -0.78125 -0.390625q-0.390625 0 -0.734375 0.234375q-0.328125 0.234375 -0.484375 0.6875q-0.140625 0.453125 -0.140625 1.4375l0 3.3125l-1.828125 0l0 -3.78125q0 -1.015625 -0.109375 -1.296875q-0.09375 -0.296875 -0.296875 -0.4375q-0.203125 -0.15625 -0.546875 -0.15625q-0.421875 0 -0.765625 0.234375q-0.34375 0.21875 -0.484375 0.65625q-0.140625 0.421875 -0.140625 1.421875l0 3.359375l-1.84375 0l0 -6.90625z" fill-rule="nonzero"/><path fill="#000000" fill-opacity="0.0" d="m383.05673 635.60443l0 0l0 15.32605l0 0l0 -15.32605z" fill-rule="nonzero"/><path fill="#000099" d="m273.95883 648.53674l109.0979 0l0 1.1999512l-109.0979 0l0 -1.1999512z" fill-rule="nonzero"/><path fill="#000000" d="m242.16685 656.7638l0 1.453125l-1.25 0l0 2.78125q0 0.84375 0.03125 0.984375q0.046875 0.140625 0.171875 0.234375q0.125 0.09375 0.3125 0.09375q0.25 0 0.734375 -0.171875l0.15625 1.421875q-0.640625 0.265625 -1.453125 0.265625q-0.484375 0 -0.890625 -0.15625q-0.390625 -0.171875 -0.578125 -0.4375q-0.1875 -0.265625 -0.265625 -0.71875q-0.046875 -0.3125 -0.046875 -1.28125l0 -3.015625l-0.84375 0l0 -1.453125l0.84375 0l0 -1.375l1.828125 -1.078125l0 2.453125l1.25 0zm1.2664948 -0.9375l0 -1.703125l1.828125 0l0 1.703125l-1.828125 0zm0 7.84375l0 -6.90625l1.828125 0l0 6.90625l-1.828125 0zm6.8748627 -6.90625l0 1.453125l-1.25 0l0 2.78125q0 0.84375 0.03125 0.984375q0.046875 0.140625 0.171875 0.234375q0.125 0.09375 0.3125 0.09375q0.25 0 0.734375 -0.171875l0.15625 1.421875q-0.640625 0.265625 -1.453125 0.265625q-0.484375 0 -0.890625 -0.15625q-0.390625 -0.171875 -0.578125 -0.4375q-0.1875 -0.265625 -0.265625 -0.71875q-0.046875 -0.3125 -0.046875 -1.28125l0 -3.015625l-0.84375 0l0 -1.453125l0.84375 0l0 -1.375l1.828125 -1.078125l0 2.453125l1.25 0zm1.2664948 6.90625l0 -9.546875l1.828125 0l0 9.546875l-1.828125 0zm7.7029724 -2.203125l1.828125 0.3125q-0.34375 1.0 -1.109375 1.53125q-0.765625 0.515625 -1.890625 0.515625q-1.8125 0 -2.6718597 -1.171875q-0.6875 -0.953125 -0.6875 -2.390625q0 -1.71875 0.890625 -2.6875q0.90623474 -0.96875 2.2812347 -0.96875q1.546875 0 2.4375 1.015625q0.890625 1.015625 0.84375 3.125l-4.578125 0q0.015625 0.8125 0.4375 1.265625q0.421875 0.453125 1.0625 0.453125q0.421875 0 0.71875 -0.234375q0.296875 -0.234375 0.4375 -0.765625zm0.109375 -1.84375q-0.015625 -0.796875 -0.40625 -1.203125q-0.390625 -0.421875 -0.953125 -0.421875q-0.59375 0 -0.984375 0.4375q-0.390625 0.4375 -0.390625 1.1875l2.734375 0zm2.8968506 -1.265625l0 -1.671875l6.671875 0l0 1.671875l-6.671875 0zm0 2.890625l0 -1.6875l6.671875 0l0 1.6875l-6.671875 0zm12.642792 -1.078125l0 -1.609375l4.15625 0l0 3.796875q-0.609375 0.578125 -1.765625 1.03125q-1.140625 0.4375 -2.3125 0.4375q-1.5 0 -2.625 -0.625q-1.109375 -0.625 -1.671875 -1.78125q-0.546875 -1.171875 -0.546875 -2.546875q0 -1.5 0.625 -2.65625q0.625 -1.15625 1.828125 -1.78125q0.921875 -0.46875 2.28125 -0.46875q1.78125 0 2.78125 0.75q1.0 0.734375 1.28125 2.0625l-1.921875 0.34375q-0.1875 -0.703125 -0.75 -1.109375q-0.5625 -0.40625 -1.390625 -0.40625q-1.265625 0 -2.015625 0.8125q-0.734375 0.796875 -0.734375 2.375q0 1.6875 0.75 2.546875q0.75 0.84375 1.984375 0.84375q0.609375 0 1.203125 -0.234375q0.609375 -0.234375 1.046875 -0.578125l0 -1.203125l-2.203125 0zm5.4920654 -0.046875q0 -0.921875 0.453125 -1.765625q0.453125 -0.859375 1.265625 -1.296875q0.828125 -0.453125 1.84375 -0.453125q1.5625 0 2.5625 1.015625q1.015625 1.015625 1.015625 2.578125q0 1.5625 -1.015625 2.59375q-1.015625 1.03125 -2.546875 1.03125q-0.953125 0 -1.8125 -0.421875q-0.859375 -0.4375 -1.3125 -1.265625q-0.453125 -0.828125 -0.453125 -2.015625zm1.875 0.09375q0 1.03125 0.484375 1.578125q0.5 0.546875 1.203125 0.546875q0.71875 0 1.203125 -0.546875q0.484375 -0.546875 0.484375 -1.59375q0 -1.015625 -0.484375 -1.5625q-0.484375 -0.546875 -1.203125 -0.546875q-0.703125 0 -1.203125 0.546875q-0.484375 0.546875 -0.484375 1.578125zm6.2663574 -0.09375q0 -0.921875 0.453125 -1.765625q0.453125 -0.859375 1.265625 -1.296875q0.828125 -0.453125 1.84375 -0.453125q1.5625 0 2.5625 1.015625q1.015625 1.015625 1.015625 2.578125q0 1.5625 -1.015625 2.59375q-1.015625 1.03125 -2.546875 1.03125q-0.953125 0 -1.8125 -0.421875q-0.859375 -0.4375 -1.3125 -1.265625q-0.453125 -0.828125 -0.453125 -2.015625zm1.875 0.09375q0 1.03125 0.484375 1.578125q0.5 0.546875 1.203125 0.546875q0.71875 0 1.203125 -0.546875q0.484375 -0.546875 0.484375 -1.59375q0 -1.015625 -0.484375 -1.5625q-0.484375 -0.546875 -1.203125 -0.546875q-0.703125 0 -1.203125 0.546875q-0.484375 0.546875 -0.484375 1.578125zm6.5163574 3.90625l2.09375 0.25q0.046875 0.375 0.25 0.5q0.25 0.203125 0.8125 0.203125q0.71875 0 1.078125 -0.21875q0.234375 -0.140625 0.359375 -0.453125q0.078125 -0.234375 0.078125 -0.84375l0 -1.015625q-0.8125 1.125 -2.0625 1.125q-1.390625 0 -2.203125 -1.171875q-0.640625 -0.9375 -0.640625 -2.328125q0 -1.734375 0.828125 -2.640625q0.84375 -0.921875 2.09375 -0.921875q1.28125 0 2.109375 1.125l0 -0.96875l1.703125 0l0 6.203125q0 1.21875 -0.203125 1.8125q-0.1875 0.609375 -0.5625 0.953125q-0.359375 0.359375 -0.96875 0.546875q-0.609375 0.203125 -1.53125 0.203125q-1.765625 0 -2.5 -0.609375q-0.734375 -0.609375 -0.734375 -1.53125q0 -0.09375 0 -0.21875zm1.640625 -4.046875q0 1.09375 0.421875 1.609375q0.4375 0.5 1.046875 0.5q0.671875 0 1.140625 -0.515625q0.46875 -0.53125 0.46875 -1.546875q0 -1.078125 -0.453125 -1.59375q-0.4375 -0.53125 -1.109375 -0.53125q-0.65625 0 -1.09375 0.515625q-0.421875 0.515625 -0.421875 1.5625zm6.6726074 3.59375l0 -9.546875l1.828125 0l0 9.546875l-1.828125 0zm7.7029724 -2.203125l1.828125 0.3125q-0.34375 1.0 -1.109375 1.53125q-0.765625 0.515625 -1.890625 0.515625q-1.8125 0 -2.671875 -1.171875q-0.6875 -0.953125 -0.6875 -2.390625q0 -1.71875 0.890625 -2.6875q0.90625 -0.96875 2.28125 -0.96875q1.546875 0 2.4375 1.015625q0.890625 1.015625 0.84375 3.125l-4.578125 0q0.015625 0.8125 0.4375 1.265625q0.421875 0.453125 1.0625 0.453125q0.421875 0 0.71875 -0.234375q0.296875 -0.234375 0.4375 -0.765625zm0.109375 -1.84375q-0.015625 -0.796875 -0.40625 -1.203125q-0.390625 -0.421875 -0.953125 -0.421875q-0.59375 0 -0.984375 0.4375q-0.390625 0.4375 -0.390625 1.1875l2.734375 0z" fill-rule="nonzero"/><a xlink:href="https://www.google.com/url?q=http://www.google.com&amp;sa=D&amp;ust=1584973513809000&amp;usg=AFQjCNHbVShGO8jmGxbd_YO07oTGCmnA9g" target="_blank" rel="noreferrer"><path fill="transparent" fill-opacity="0" d="m273.95883 634.87006l109.0979 0l0 16.0l-109.0979 0l0 -16.0z" fill-rule="nonzero"/></a><path fill="#b6d7a8" d="m637.7545 580.91077l187.57202 0l0 101.91858l-187.57202 0z" fill-rule="evenodd"/><path stroke="#000000" stroke-width="1.0" stroke-linejoin="round" stroke-linecap="butt" d="m637.7545 580.91077l187.57202 0l0 101.91858l-187.57202 0z" fill-rule="evenodd"/><path fill="#000000" d="m655.3932 638.79004l0 -8.40625l-1.453125 0l0 -1.265625l1.453125 0l0 -1.03125q0 -0.96875 0.171875 -1.453125q0.234375 -0.640625 0.828125 -1.03125q0.59375 -0.390625 1.671875 -0.390625q0.6875 0 1.53125 0.15625l-0.25 1.4375q-0.5 -0.09375 -0.953125 -0.09375q-0.75 0 -1.0625 0.328125q-0.3125 0.3125 -0.3125 1.1875l0 0.890625l1.890625 0l0 1.265625l-1.890625 0l0 8.40625l-1.625 0zm11.105164 -1.1875q-0.921875 0.765625 -1.765625 1.09375q-0.828125 0.3125 -1.796875 0.3125q-1.59375 0 -2.453125 -0.78125q-0.859375 -0.78125 -0.859375 -1.984375q0 -0.71875 0.328125 -1.296875q0.328125 -0.59375 0.84375 -0.9375q0.53125 -0.359375 1.1875 -0.546875q0.46875 -0.125 1.453125 -0.25q1.984375 -0.234375 2.921875 -0.5625q0.015625 -0.34375 0.015625 -0.421875q0 -1.0 -0.46875 -1.421875q-0.625 -0.546875 -1.875 -0.546875q-1.15625 0 -1.703125 0.40625q-0.546875 0.40625 -0.8125 1.421875l-1.609375 -0.21875q0.21875 -1.015625 0.71875 -1.640625q0.5 -0.640625 1.453125 -0.984375q0.953125 -0.34375 2.1875 -0.34375q1.25 0 2.015625 0.296875q0.78125 0.28125 1.140625 0.734375q0.375 0.4375 0.515625 1.109375q0.078125 0.421875 0.078125 1.515625l0 2.1875q0 2.28125 0.109375 2.890625q0.109375 0.59375 0.40625 1.15625l-1.703125 0q-0.265625 -0.515625 -0.328125 -1.1875zm-0.140625 -3.671875q-0.890625 0.375 -2.671875 0.625q-1.015625 0.140625 -1.4375 0.328125q-0.421875 0.1875 -0.65625 0.53125q-0.21875 0.34375 -0.21875 0.78125q0 0.65625 0.5 1.09375q0.5 0.4375 1.453125 0.4375q0.9375 0 1.671875 -0.40625q0.75 -0.421875 1.09375 -1.140625q0.265625 -0.5625 0.265625 -1.640625l0 -0.609375zm4.2038574 -6.609375l0 -1.890625l1.640625 0l0 1.890625l-1.640625 0zm0 11.46875l0 -9.671875l1.640625 0l0 9.671875l-1.640625 0zm4.0979614 0l0 -13.359375l1.640625 0l0 13.359375l-1.640625 0zm4.1917114 -11.46875l0 -1.890625l1.640625 0l0 1.890625l-1.640625 0zm0 11.46875l0 -9.671875l1.640625 0l0 9.671875l-1.640625 0zm4.1447754 0l0 -9.671875l1.46875 0l0 1.375q1.0625 -1.59375 3.078125 -1.59375q0.875 0 1.609375 0.3125q0.734375 0.3125 1.09375 0.828125q0.375 0.5 0.515625 1.203125q0.09375 0.453125 0.09375 1.59375l0 5.953125l-1.640625 0l0 -5.890625q0 -1.0 -0.203125 -1.484375q-0.1875 -0.5 -0.671875 -0.796875q-0.484375 -0.296875 -1.140625 -0.296875q-1.046875 0 -1.8125 0.671875q-0.75 0.65625 -0.75 2.515625l0 5.28125l-1.640625 0zm10.063232 0.796875l1.59375 0.234375q0.109375 0.75 0.5625 1.078125q0.609375 0.453125 1.671875 0.453125q1.140625 0 1.75 -0.453125q0.625 -0.453125 0.84375 -1.265625q0.125 -0.5 0.109375 -2.109375q-1.0625 1.265625 -2.671875 1.265625q-2.0 0 -3.09375 -1.4375q-1.09375 -1.4375 -1.09375 -3.453125q0 -1.390625 0.5 -2.5625q0.515625 -1.171875 1.453125 -1.796875q0.953125 -0.640625 2.25 -0.640625q1.703125 0 2.8125 1.375l0 -1.15625l1.515625 0l0 8.359375q0 2.265625 -0.46875 3.203125q-0.453125 0.9375 -1.453125 1.484375q-0.984375 0.546875 -2.453125 0.546875q-1.71875 0 -2.796875 -0.78125q-1.0625 -0.765625 -1.03125 -2.34375zm1.359375 -5.8125q0 1.90625 0.75 2.78125q0.765625 0.875 1.90625 0.875q1.125 0 1.890625 -0.859375q0.765625 -0.875 0.765625 -2.734375q0 -1.78125 -0.796875 -2.671875q-0.78125 -0.90625 -1.890625 -0.90625q-1.09375 0 -1.859375 0.890625q-0.765625 0.875 -0.765625 2.625zm9.000732 -1.484375q0 -3.328125 1.78125 -5.203125q1.78125 -1.890625 4.609375 -1.890625q1.84375 0 3.328125 0.890625q1.484375 0.875 2.265625 2.46875q0.78125 1.578125 0.78125 3.578125q0 2.03125 -0.828125 3.640625q-0.8125 1.59375 -2.3125 2.421875q-1.5 0.828125 -3.25 0.828125q-1.875 0 -3.359375 -0.90625q-1.484375 -0.921875 -2.25 -2.5q-0.765625 -1.578125 -0.765625 -3.328125zm1.8125 0.015625q0 2.421875 1.296875 3.8125q1.296875 1.390625 3.265625 1.390625q2.0 0 3.28125 -1.40625q1.28125 -1.40625 1.28125 -3.984375q0 -1.625 -0.546875 -2.84375q-0.546875 -1.21875 -1.609375 -1.875q-1.0625 -0.671875 -2.375 -0.671875q-1.890625 0 -3.25 1.296875q-1.34375 1.28125 -1.34375 4.28125zm13.027039 6.484375l0 -9.671875l1.46875 0l0 1.375q1.0625 -1.59375 3.078125 -1.59375q0.875 0 1.609375 0.3125q0.734375 0.3125 1.09375 0.828125q0.375 0.5 0.515625 1.203125q0.09375 0.453125 0.09375 1.59375l0 5.953125l-1.640625 0l0 -5.890625q0 -1.0 -0.203125 -1.484375q-0.1875 -0.5 -0.671875 -0.796875q-0.484375 -0.296875 -1.140625 -0.296875q-1.046875 0 -1.8125 0.671875q-0.75 0.65625 -0.75 2.515625l0 5.28125l-1.640625 0zm10.578857 0l0 -13.359375l5.046875 0q1.328125 0 2.03125 0.125q0.96875 0.171875 1.640625 0.640625q0.671875 0.453125 1.078125 1.28125q0.40625 0.828125 0.40625 1.828125q0 1.703125 -1.09375 2.890625q-1.078125 1.171875 -3.921875 1.171875l-3.421875 0l0 5.421875l-1.765625 0zm1.765625 -7.0l3.453125 0q1.71875 0 2.4375 -0.640625q0.71875 -0.640625 0.71875 -1.796875q0 -0.84375 -0.421875 -1.4375q-0.421875 -0.59375 -1.125 -0.78125q-0.4375 -0.125 -1.640625 -0.125l-3.421875 0l0 4.78125zm16.802917 7.0l0 -1.421875q-1.125 1.640625 -3.0625 1.640625q-0.859375 0 -1.609375 -0.328125q-0.734375 -0.328125 -1.09375 -0.828125q-0.359375 -0.5 -0.5 -1.21875q-0.109375 -0.46875 -0.109375 -1.53125l0 -5.984375l1.640625 0l0 5.359375q0 1.28125 0.109375 1.734375q0.15625 0.640625 0.65625 1.015625q0.5 0.375 1.234375 0.375q0.734375 0 1.375 -0.375q0.65625 -0.390625 0.921875 -1.03125q0.265625 -0.65625 0.265625 -1.890625l0 -5.1875l1.640625 0l0 9.671875l-1.46875 0zm4.0319824 0l0 -9.671875l1.46875 0l0 1.46875q0.5625 -1.03125 1.03125 -1.359375q0.484375 -0.328125 1.0625 -0.328125q0.828125 0 1.6875 0.53125l-0.5625 1.515625q-0.609375 -0.359375 -1.203125 -0.359375q-0.546875 0 -0.96875 0.328125q-0.421875 0.328125 -0.609375 0.890625q-0.28125 0.875 -0.28125 1.921875l0 5.0625l-1.625 0zm6.2283325 3.703125l0 -13.375l1.484375 0l0 1.25q0.53125 -0.734375 1.1875 -1.09375q0.671875 -0.375 1.625 -0.375q1.234375 0 2.171875 0.640625q0.953125 0.625 1.4375 1.796875q0.484375 1.15625 0.484375 2.546875q0 1.484375 -0.53125 2.671875q-0.53125 1.1875 -1.546875 1.828125q-1.015625 0.625 -2.140625 0.625q-0.8125 0 -1.46875 -0.34375q-0.65625 -0.34375 -1.0625 -0.875l0 4.703125l-1.640625 0zm1.484375 -8.484375q0 1.859375 0.75 2.765625q0.765625 0.890625 1.828125 0.890625q1.09375 0 1.875 -0.921875q0.78125 -0.9375 0.78125 -2.875q0 -1.84375 -0.765625 -2.765625q-0.75 -0.921875 -1.8125 -0.921875q-1.046875 0 -1.859375 0.984375q-0.796875 0.96875 -0.796875 2.84375zm8.281921 -0.0625q0 -2.6875 1.484375 -3.96875q1.25 -1.078125 3.046875 -1.078125q2.0 0 3.265625 1.3125q1.265625 1.296875 1.265625 3.609375q0 1.859375 -0.5625 2.9375q-0.5625 1.0625 -1.640625 1.65625q-1.0625 0.59375 -2.328125 0.59375q-2.03125 0 -3.28125 -1.296875q-1.25 -1.3125 -1.25 -3.765625zm1.6875 0q0 1.859375 0.796875 2.796875q0.8125 0.921875 2.046875 0.921875q1.21875 0 2.03125 -0.921875q0.8125 -0.9375 0.8125 -2.84375q0 -1.796875 -0.8125 -2.71875q-0.8125 -0.921875 -2.03125 -0.921875q-1.234375 0 -2.046875 0.921875q-0.796875 0.90625 -0.796875 2.765625zm8.641357 1.953125l1.625 -0.25q0.125 0.96875 0.75 1.5q0.625 0.515625 1.75 0.515625q1.125 0 1.671875 -0.453125q0.546875 -0.46875 0.546875 -1.09375q0 -0.546875 -0.484375 -0.875q-0.328125 -0.21875 -1.671875 -0.546875q-1.8125 -0.46875 -2.515625 -0.796875q-0.6875 -0.328125 -1.046875 -0.90625q-0.359375 -0.59375 -0.359375 -1.3125q0 -0.640625 0.296875 -1.1875q0.296875 -0.5625 0.8125 -0.921875q0.375 -0.28125 1.03125 -0.46875q0.671875 -0.203125 1.421875 -0.203125q1.140625 0 2.0 0.328125q0.859375 0.328125 1.265625 0.890625q0.421875 0.5625 0.578125 1.5l-1.609375 0.21875q-0.109375 -0.75 -0.640625 -1.171875q-0.515625 -0.421875 -1.46875 -0.421875q-1.140625 0 -1.625 0.375q-0.46875 0.375 -0.46875 0.875q0 0.3125 0.1875 0.578125q0.203125 0.265625 0.640625 0.4375q0.234375 0.09375 1.4375 0.421875q1.75 0.453125 2.4375 0.75q0.6875 0.296875 1.078125 0.859375q0.390625 0.5625 0.390625 1.40625q0 0.828125 -0.484375 1.546875q-0.46875 0.71875 -1.375 1.125q-0.90625 0.390625 -2.046875 0.390625q-1.875 0 -2.875 -0.78125q-0.984375 -0.78125 -1.25 -2.328125zm16.609375 -0.21875l1.6875 0.203125q-0.40625 1.484375 -1.484375 2.3125q-1.078125 0.8125 -2.765625 0.8125q-2.125 0 -3.375 -1.296875q-1.234375 -1.3125 -1.234375 -3.671875q0 -2.453125 1.25 -3.796875q1.265625 -1.34375 3.265625 -1.34375q1.9375 0 3.15625 1.328125q1.234375 1.3125 1.234375 3.703125q0 0.15625 0 0.4375l-7.21875 0q0.09375 1.59375 0.90625 2.453125q0.8125 0.84375 2.015625 0.84375q0.90625 0 1.546875 -0.46875q0.640625 -0.484375 1.015625 -1.515625zm-5.390625 -2.65625l5.40625 0q-0.109375 -1.21875 -0.625 -1.828125q-0.78125 -0.953125 -2.03125 -0.953125q-1.125 0 -1.90625 0.765625q-0.765625 0.75 -0.84375 2.015625zm12.266357 9.6875q-1.359375 -1.703125 -2.296875 -4.0q-0.9375 -2.296875 -0.9375 -4.765625q0 -2.15625 0.703125 -4.140625q0.828125 -2.3125 2.53125 -4.59375l1.171875 0q-1.09375 1.890625 -1.453125 2.703125q-0.546875 1.25 -0.875 2.625q-0.390625 1.703125 -0.390625 3.421875q0 4.375 2.71875 8.75l-1.171875 0zm4.1657715 0l-1.1875 0q2.734375 -4.375 2.734375 -8.75q0 -1.71875 -0.390625 -3.390625q-0.3125 -1.375 -0.875 -2.625q-0.359375 -0.828125 -1.46875 -2.734375l1.1875 0q1.703125 2.28125 2.53125 4.59375q0.6875 1.984375 0.6875 4.140625q0 2.46875 -0.9375 4.765625q-0.9375 2.296875 -2.28125 4.0z" fill-rule="nonzero"/><path fill="#000000" fill-opacity="0.0" d="m612.58795 632.0525l25.167969 -0.17602539" fill-rule="evenodd"/><path stroke="#000000" stroke-width="2.0" stroke-linejoin="round" stroke-linecap="butt" stroke-dasharray="2.0,6.0" d="m612.58795 632.0525l25.167969 -0.17602539" fill-rule="evenodd"/><path fill="#000000" fill-opacity="0.0" d="m113.865776 598.5617l119.68 0l0 67.68164l-119.68 0z" fill-rule="evenodd"/><path fill="#ffffff" d="m145.21443 612.77606l3.078125 0l0 9.65625q0 1.90625 -0.34375 2.921875q-0.4375 1.328125 -1.625 2.140625q-1.171875 0.8125 -3.09375 0.8125q-2.265625 0 -3.484375 -1.265625q-1.21875 -1.265625 -1.234375 -3.71875l2.90625 -0.328125q0.0625 1.3125 0.390625 1.84375q0.5 0.828125 1.515625 0.828125q1.03125 0 1.453125 -0.578125q0.4375 -0.59375 0.4375 -2.453125l0 -9.859375zm13.611694 15.265625l0 -1.65625q-0.609375 0.890625 -1.59375 1.40625q-0.984375 0.5 -2.078125 0.5q-1.109375 0 -2.0 -0.484375q-0.875 -0.5 -1.28125 -1.375q-0.390625 -0.890625 -0.390625 -2.453125l0 -7.0l2.921875 0l0 5.078125q0 2.34375 0.15625 2.875q0.171875 0.515625 0.59375 0.828125q0.4375 0.296875 1.09375 0.296875q0.75 0 1.34375 -0.40625q0.59375 -0.40625 0.8125 -1.015625q0.21875 -0.609375 0.21875 -2.984375l0 -4.671875l2.921875 0l0 11.0625l-2.71875 0zm5.668701 -11.0625l2.71875 0l0 1.625q0.53125 -0.828125 1.4375 -1.34375q0.90625 -0.53125 2.015625 -0.53125q1.921875 0 3.265625 1.515625q1.34375 1.5 1.34375 4.203125q0 2.765625 -1.359375 4.3125q-1.34375 1.53125 -3.265625 1.53125q-0.921875 0 -1.671875 -0.359375q-0.734375 -0.375 -1.5625 -1.25l0 5.5625l-2.921875 0l0 -15.265625zm2.890625 5.34375q0 1.859375 0.734375 2.75q0.75 0.890625 1.8125 0.890625q1.015625 0 1.6875 -0.8125q0.6875 -0.8125 0.6875 -2.6875q0 -1.734375 -0.703125 -2.578125q-0.703125 -0.84375 -1.734375 -0.84375q-1.0625 0 -1.78125 0.828125q-0.703125 0.828125 -0.703125 2.453125zm10.215576 -6.84375l0 -2.703125l2.921875 0l0 2.703125l-2.921875 0zm0 12.5625l0 -11.0625l2.921875 0l0 11.0625l-2.921875 0zm11.003769 -11.0625l0 2.328125l-2.0 0l0 4.46875q0 1.34375 0.046875 1.578125q0.0625 0.21875 0.265625 0.375q0.203125 0.140625 0.5 0.140625q0.40625 0 1.171875 -0.28125l0.25 2.265625q-1.015625 0.4375 -2.3125 0.4375q-0.796875 0 -1.4375 -0.265625q-0.625 -0.265625 -0.921875 -0.6875q-0.296875 -0.421875 -0.40625 -1.140625q-0.09375 -0.515625 -0.09375 -2.0625l0 -4.828125l-1.34375 0l0 -2.328125l1.34375 0l0 -2.1875l2.9375 -1.71875l0 3.90625l2.0 0zm8.430557 7.546875l2.90625 0.484375q-0.546875 1.609375 -1.765625 2.453125q-1.21875 0.828125 -3.03125 0.828125q-2.890625 0 -4.28125 -1.890625q-1.09375 -1.5 -1.09375 -3.8125q0 -2.75 1.4375 -4.296875q1.4375 -1.5625 3.640625 -1.5625q2.46875 0 3.890625 1.640625q1.421875 1.625 1.359375 4.984375l-7.328125 0q0.03125 1.296875 0.703125 2.03125q0.6875 0.71875 1.703125 0.71875q0.6875 0 1.15625 -0.375q0.46875 -0.375 0.703125 -1.203125zm0.171875 -2.96875q-0.03125 -1.265625 -0.65625 -1.921875q-0.625 -0.671875 -1.53125 -0.671875q-0.953125 0 -1.578125 0.703125q-0.625 0.703125 -0.609375 1.890625l4.375 0zm8.080444 6.484375l-2.921875 0l0 -11.0625l2.71875 0l0 1.578125q0.703125 -1.125 1.25 -1.46875q0.5625 -0.359375 1.265625 -0.359375q1.0 0 1.9375 0.5625l-0.90625 2.546875q-0.75 -0.484375 -1.375 -0.484375q-0.625 0 -1.046875 0.34375q-0.421875 0.328125 -0.671875 1.21875q-0.25 0.890625 -0.25 3.703125l0 3.421875z" fill-rule="nonzero"/><path fill="#ffffff" d="m139.70403 654.0417l0 -15.265625l11.328125 0l0 2.578125l-8.234375 0l0 3.390625l7.65625 0l0 2.5625l-7.65625 0l0 4.15625l8.515625 0l0 2.578125l-11.609375 0zm24.272568 0l-2.921875 0l0 -5.640625q0 -1.796875 -0.1875 -2.3125q-0.1875 -0.53125 -0.609375 -0.828125q-0.421875 -0.296875 -1.015625 -0.296875q-0.765625 0 -1.375 0.421875q-0.59375 0.421875 -0.828125 1.109375q-0.21875 0.6875 -0.21875 2.53125l0 5.015625l-2.921875 0l0 -11.0625l2.71875 0l0 1.625q1.4375 -1.875 3.640625 -1.875q0.96875 0 1.765625 0.359375q0.8125 0.34375 1.21875 0.890625q0.40625 0.53125 0.5625 1.21875q0.171875 0.6875 0.171875 1.96875l0 6.875zm2.6999512 0.734375l3.34375 0.40625q0.078125 0.578125 0.375 0.796875q0.421875 0.3125 1.3125 0.3125q1.15625 0 1.71875 -0.34375q0.390625 -0.234375 0.59375 -0.734375q0.125 -0.375 0.125 -1.34375l0 -1.625q-1.3125 1.796875 -3.3125 1.796875q-2.21875 0 -3.53125 -1.890625q-1.015625 -1.484375 -1.015625 -3.703125q0 -2.78125 1.328125 -4.25q1.34375 -1.46875 3.34375 -1.46875q2.046875 0 3.375 1.796875l0 -1.546875l2.734375 0l0 9.921875q0 1.96875 -0.328125 2.9375q-0.3125 0.96875 -0.890625 1.515625q-0.578125 0.546875 -1.5625 0.859375q-0.96875 0.3125 -2.453125 0.3125q-2.8125 0 -4.0 -0.96875q-1.171875 -0.953125 -1.171875 -2.4375q0 -0.140625 0.015625 -0.34375zm2.609375 -6.5q0 1.765625 0.671875 2.59375q0.6875 0.8125 1.6875 0.8125q1.078125 0 1.8125 -0.84375q0.75 -0.84375 0.75 -2.484375q0 -1.71875 -0.71875 -2.546875q-0.703125 -0.84375 -1.78125 -0.84375q-1.0625 0 -1.75 0.828125q-0.671875 0.8125 -0.671875 2.484375zm10.684311 -6.796875l0 -2.703125l2.921875 0l0 2.703125l-2.921875 0zm0 12.5625l0 -11.0625l2.921875 0l0 11.0625l-2.921875 0zm15.988144 0l-2.921875 0l0 -5.640625q0 -1.796875 -0.1875 -2.3125q-0.1875 -0.53125 -0.609375 -0.828125q-0.421875 -0.296875 -1.015625 -0.296875q-0.765625 0 -1.375 0.421875q-0.59375 0.421875 -0.828125 1.109375q-0.21875 0.6875 -0.21875 2.53125l0 5.015625l-2.921875 0l0 -11.0625l2.71875 0l0 1.625q1.4375 -1.875 3.640625 -1.875q0.96875 0 1.765625 0.359375q0.8125 0.34375 1.21875 0.890625q0.40625 0.53125 0.5625 1.21875q0.171875 0.6875 0.171875 1.96875l0 6.875zm9.371826 -3.515625l2.90625 0.484375q-0.546875 1.609375 -1.765625 2.453125q-1.21875 0.828125 -3.03125 0.828125q-2.890625 0 -4.28125 -1.890625q-1.09375 -1.5 -1.09375 -3.8125q0 -2.75 1.4375 -4.296875q1.4375 -1.5625 3.640625 -1.5625q2.46875 0 3.890625 1.640625q1.421875 1.625 1.359375 4.984375l-7.328125 0q0.03125 1.296875 0.703125 2.03125q0.6875 0.71875 1.703125 0.71875q0.6875 0 1.15625 -0.375q0.46875 -0.375 0.703125 -1.203125zm0.171875 -2.96875q-0.03125 -1.265625 -0.65625 -1.921875q-0.625 -0.671875 -1.53125 -0.671875q-0.953125 0 -1.578125 0.703125q-0.625 0.703125 -0.609375 1.890625l4.375 0z" fill-rule="nonzero"/><path fill="#000000" fill-opacity="0.0" d="m482.34384 477.29398l0 87.08658" fill-rule="evenodd"/><path stroke="#000000" stroke-width="2.0" stroke-linejoin="round" stroke-linecap="butt" d="m482.34384 477.29398l0 75.08658" fill-rule="evenodd"/><path stroke="#000000" stroke-width="2.0" stroke-linecap="butt" d="m479.04037 552.38055l3.3034668 9.076233l3.3034668 -9.076233z" fill-rule="evenodd"/><path fill="#cccccc" d="m378.45407 193.78996l207.77951 0l0 98.20473l-207.77951 0z" fill-rule="evenodd"/><path stroke="#000000" stroke-width="1.0" stroke-linejoin="round" stroke-linecap="butt" d="m378.45407 193.78996l207.77951 0l0 98.20473l-207.77951 0z" fill-rule="evenodd"/><path fill="#000000" d="m457.21664 244.76295l0 -2.578125l6.640625 0l0 6.078125q-0.96875 0.9375 -2.8125 1.65625q-1.828125 0.71875 -3.71875 0.71875q-2.390625 0 -4.171875 -1.0q-1.78125 -1.015625 -2.6875 -2.875q-0.890625 -1.875 -0.890625 -4.078125q0 -2.390625 1.0 -4.234375q1.0 -1.859375 2.9375 -2.84375q1.46875 -0.765625 3.65625 -0.765625q2.828125 0 4.421875 1.203125q1.609375 1.1875 2.0625 3.296875l-3.0625 0.5625q-0.3125 -1.125 -1.203125 -1.765625q-0.890625 -0.65625 -2.21875 -0.65625q-2.03125 0 -3.21875 1.28125q-1.1875 1.28125 -1.1875 3.796875q0 2.71875 1.203125 4.078125q1.203125 1.359375 3.171875 1.359375q0.96875 0 1.9375 -0.375q0.96875 -0.390625 1.671875 -0.921875l0 -1.9375l-3.53125 0zm12.261566 5.609375l-2.921875 0l0 -11.0625l2.71875 0l0 1.578125q0.703125 -1.125 1.25 -1.46875q0.5625 -0.359375 1.265625 -0.359375q1.0 0 1.9375 0.5625l-0.90625 2.546875q-0.75 -0.484375 -1.375 -0.484375q-0.625 0 -1.046875 0.34375q-0.421875 0.328125 -0.671875 1.21875q-0.25 0.890625 -0.25 3.703125l0 3.421875zm7.6907043 -7.6875l-2.65625 -0.484375q0.453125 -1.59375 1.546875 -2.359375q1.09375 -0.78125 3.25 -0.78125q1.953125 0 2.90625 0.46875q0.96875 0.453125 1.359375 1.171875q0.390625 0.71875 0.390625 2.625l-0.03125 3.40625q0 1.46875 0.125 2.15625q0.140625 0.6875 0.53125 1.484375l-2.890625 0q-0.109375 -0.296875 -0.28125 -0.859375q-0.078125 -0.265625 -0.109375 -0.34375q-0.75 0.71875 -1.609375 1.09375q-0.84375 0.359375 -1.8125 0.359375q-1.703125 0 -2.6875 -0.921875q-0.984375 -0.9375 -0.984375 -2.34375q0 -0.9375 0.4375 -1.671875q0.453125 -0.734375 1.25 -1.125q0.8125 -0.390625 2.34375 -0.6875q2.046875 -0.390625 2.84375 -0.71875l0 -0.296875q0 -0.84375 -0.421875 -1.203125q-0.421875 -0.359375 -1.578125 -0.359375q-0.78125 0 -1.21875 0.3125q-0.4375 0.3125 -0.703125 1.078125zm3.921875 2.375q-0.5625 0.1875 -1.78125 0.453125q-1.21875 0.25 -1.59375 0.5q-0.578125 0.40625 -0.578125 1.03125q0 0.625 0.453125 1.078125q0.46875 0.4375 1.171875 0.4375q0.796875 0 1.515625 -0.515625q0.53125 -0.40625 0.6875 -0.96875q0.125 -0.375 0.125 -1.4375l0 -0.578125zm15.892944 5.3125l-2.71875 0l0 -1.625q-0.671875 0.953125 -1.59375 1.421875q-0.921875 0.453125 -1.859375 0.453125q-1.90625 0 -3.265625 -1.53125q-1.359375 -1.546875 -1.359375 -4.296875q0 -2.8125 1.3125 -4.265625q1.328125 -1.46875 3.359375 -1.46875q1.84375 0 3.203125 1.546875l0 -5.5l2.921875 0l0 15.265625zm-7.8125 -5.765625q0 1.765625 0.5 2.5625q0.703125 1.140625 1.96875 1.140625q1.015625 0 1.71875 -0.859375q0.71875 -0.859375 0.71875 -2.5625q0 -1.90625 -0.6875 -2.75q-0.6875 -0.84375 -1.765625 -0.84375q-1.046875 0 -1.75 0.828125q-0.703125 0.828125 -0.703125 2.484375zm10.699951 5.765625l0 -15.265625l2.921875 0l0 15.265625l-2.921875 0zm12.331879 -3.515625l2.90625 0.484375q-0.546875 1.609375 -1.765625 2.453125q-1.21875 0.828125 -3.03125 0.828125q-2.890625 0 -4.28125 -1.890625q-1.09375 -1.5 -1.09375 -3.8125q0 -2.75 1.4375 -4.296875q1.4375 -1.5625 3.640625 -1.5625q2.46875 0 3.890625 1.640625q1.421875 1.625 1.359375 4.984375l-7.328125 0q0.03125 1.296875 0.703125 2.03125q0.6875 0.71875 1.703125 0.71875q0.6875 0 1.15625 -0.375q0.46875 -0.375 0.703125 -1.203125zm0.171875 -2.96875q-0.03125 -1.265625 -0.65625 -1.921875q-0.625 -0.671875 -1.53125 -0.671875q-0.953125 0 -1.578125 0.703125q-0.625 0.703125 -0.609375 1.890625l4.375 0z" fill-rule="nonzero"/><path fill="#000000" fill-opacity="0.0" d="m482.34384 110.49606l0 83.30708" fill-rule="evenodd"/><path stroke="#000000" stroke-width="2.0" stroke-linejoin="round" stroke-linecap="butt" d="m482.34384 110.49606l0 71.30708" fill-rule="evenodd"/><path stroke="#000000" stroke-width="2.0" stroke-linecap="butt" d="m479.04037 181.80315l3.3034668 9.076202l3.3034668 -9.076202z" fill-rule="evenodd"/><path fill="#000000" fill-opacity="0.0" d="m482.34384 291.9947l0 87.08661" fill-rule="evenodd"/><path stroke="#000000" stroke-width="2.0" stroke-linejoin="round" stroke-linecap="butt" d="m482.34384 291.9947l0 75.08658" fill-rule="evenodd"/><path stroke="#000000" stroke-width="2.0" stroke-linecap="butt" d="m479.04037 367.08127l3.3034668 9.076202l3.3034668 -9.076202z" fill-rule="evenodd"/><path fill="#b6d7a8" d="m433.40683 581.09186l179.18112 0l0 101.921265l-179.18112 0z" fill-rule="evenodd"/><path stroke="#000000" stroke-width="1.0" stroke-linejoin="round" stroke-linecap="butt" d="m433.40683 581.09186l179.18112 0l0 101.921265l-179.18112 0z" fill-rule="evenodd"/><path fill="#000000" d="m460.59555 613.5037l0.234375 1.453125q-0.6875 0.140625 -1.234375 0.140625q-0.890625 0 -1.390625 -0.28125q-0.484375 -0.28125 -0.6875 -0.734375q-0.203125 -0.46875 -0.203125 -1.9375l0 -5.578125l-1.203125 0l0 -1.265625l1.203125 0l0 -2.390625l1.625 -0.984375l0 3.375l1.65625 0l0 1.265625l-1.65625 0l0 5.671875q0 0.6875 0.078125 0.890625q0.09375 0.203125 0.28125 0.328125q0.203125 0.109375 0.578125 0.109375q0.265625 0 0.71875 -0.0625zm8.230164 -1.640625l1.6875 0.203125q-0.40625 1.484375 -1.484375 2.3125q-1.078125 0.8125 -2.765625 0.8125q-2.125 0 -3.375 -1.296875q-1.234375 -1.3125 -1.234375 -3.671875q0 -2.453125 1.25 -3.796875q1.265625 -1.34375 3.265625 -1.34375q1.9375 0 3.15625 1.328125q1.234375 1.3125 1.234375 3.703125q0 0.15625 0 0.4375l-7.21875 0q0.09375 1.59375 0.90625 2.453125q0.8125 0.84375 2.015625 0.84375q0.90625 0 1.546875 -0.46875q0.640625 -0.484375 1.015625 -1.515625zm-5.390625 -2.65625l5.40625 0q-0.109375 -1.21875 -0.625 -1.828125q-0.78125 -0.953125 -2.03125 -0.953125q-1.125 0 -1.90625 0.765625q-0.765625 0.75 -0.84375 2.015625zm8.485107 2.875l1.625 -0.25q0.125 0.96875 0.75 1.5q0.625 0.515625 1.75 0.515625q1.125 0 1.671875 -0.453125q0.546875 -0.46875 0.546875 -1.09375q0 -0.546875 -0.484375 -0.875q-0.328125 -0.21875 -1.671875 -0.546875q-1.8125 -0.46875 -2.515625 -0.796875q-0.6875 -0.328125 -1.046875 -0.90625q-0.359375 -0.59375 -0.359375 -1.3125q0 -0.640625 0.296875 -1.1875q0.296875 -0.5625 0.8125 -0.921875q0.375 -0.28125 1.03125 -0.46875q0.671875 -0.203125 1.421875 -0.203125q1.140625 0 2.0 0.328125q0.859375 0.328125 1.265625 0.890625q0.421875 0.5625 0.578125 1.5l-1.609375 0.21875q-0.109375 -0.75 -0.640625 -1.171875q-0.515625 -0.421875 -1.46875 -0.421875q-1.140625 0 -1.625 0.375q-0.46875 0.375 -0.46875 0.875q0 0.3125 0.1875 0.578125q0.203125 0.265625 0.640625 0.4375q0.234375 0.09375 1.4375 0.421875q1.75 0.453125 2.4375 0.75q0.6875 0.296875 1.078125 0.859375q0.390625 0.5625 0.390625 1.40625q0 0.828125 -0.484375 1.546875q-0.46875 0.71875 -1.375 1.125q-0.90625 0.390625 -2.046875 0.390625q-1.875 0 -2.875 -0.78125q-0.984375 -0.78125 -1.25 -2.328125zm13.5625 1.421875l0.234375 1.453125q-0.6875 0.140625 -1.234375 0.140625q-0.890625 0 -1.390625 -0.28125q-0.484375 -0.28125 -0.6875 -0.734375q-0.203125 -0.46875 -0.203125 -1.9375l0 -5.578125l-1.203125 0l0 -1.265625l1.203125 0l0 -2.390625l1.625 -0.984375l0 3.375l1.65625 0l0 1.265625l-1.65625 0l0 5.671875q0 0.6875 0.078125 0.890625q0.09375 0.203125 0.28125 0.328125q0.203125 0.109375 0.578125 0.109375q0.265625 0 0.71875 -0.0625zm4.1364136 1.46875l-3.53125 -13.359375l1.8125 0l2.03125 8.765625q0.328125 1.375 0.5625 2.71875q0.5 -2.140625 0.59375 -2.46875l2.546875 -9.015625l2.125 0l1.921875 6.765625q0.71875 2.515625 1.03125 4.71875q0.265625 -1.265625 0.671875 -2.890625l2.09375 -8.59375l1.78125 0l-3.671875 13.359375l-1.703125 0l-2.8125 -10.171875q-0.359375 -1.28125 -0.421875 -1.5625q-0.203125 0.90625 -0.390625 1.5625l-2.828125 10.171875l-1.8125 0zm21.365173 -3.109375l1.6875305 0.203125q-0.40625 1.484375 -1.4844055 2.3125q-1.078125 0.8125 -2.765625 0.8125q-2.125 0 -3.375 -1.296875q-1.234375 -1.3125 -1.234375 -3.671875q0 -2.453125 1.25 -3.796875q1.265625 -1.34375 3.265625 -1.34375q1.9375 0 3.15625 1.328125q1.2344055 1.3125 1.2344055 3.703125q0 0.15625 0 0.4375l-7.2187805 0q0.09375 1.59375 0.90625 2.453125q0.8125 0.84375 2.015625 0.84375q0.90625 0 1.546875 -0.46875q0.640625 -0.484375 1.015625 -1.515625zm-5.390625 -2.65625l5.40625 0q-0.109375 -1.21875 -0.625 -1.828125q-0.78125 -0.953125 -2.03125 -0.953125q-1.125 0 -1.90625 0.765625q-0.765625 0.75 -0.84375 2.015625zm10.641327 5.765625l-1.515625 0l0 -13.359375l1.640625 0l0 4.765625q1.046875 -1.296875 2.65625 -1.296875q0.890625 0 1.6875 0.359375q0.796875 0.359375 1.3125 1.015625q0.515625 0.640625 0.796875 1.5625q0.296875 0.921875 0.296875 1.96875q0 2.484375 -1.234375 3.84375q-1.21875 1.359375 -2.953125 1.359375q-1.703125 0 -2.6875 -1.4375l0 1.21875zm-0.015625 -4.90625q0 1.734375 0.484375 2.515625q0.765625 1.265625 2.09375 1.265625q1.078125 0 1.859375 -0.9375q0.78125 -0.9375 0.78125 -2.78125q0 -1.890625 -0.75 -2.796875q-0.75 -0.90625 -1.828125 -0.90625q-1.0625 0 -1.859375 0.9375q-0.78125 0.9375 -0.78125 2.703125zm8.235107 2.015625l1.625 -0.25q0.125 0.96875 0.75 1.5q0.625 0.515625 1.75 0.515625q1.125 0 1.671875 -0.453125q0.546875 -0.46875 0.546875 -1.09375q0 -0.546875 -0.484375 -0.875q-0.328125 -0.21875 -1.671875 -0.546875q-1.8125 -0.46875 -2.515625 -0.796875q-0.6875 -0.328125 -1.046875 -0.90625q-0.359375 -0.59375 -0.359375 -1.3125q0 -0.640625 0.296875 -1.1875q0.296875 -0.5625 0.8125 -0.921875q0.375 -0.28125 1.03125 -0.46875q0.671875 -0.203125 1.421875 -0.203125q1.140625 0 2.0 0.328125q0.859375 0.328125 1.265625 0.890625q0.421875 0.5625 0.578125 1.5l-1.609375 0.21875q-0.109375 -0.75 -0.640625 -1.171875q-0.515625 -0.421875 -1.46875 -0.421875q-1.140625 0 -1.625 0.375q-0.46875 0.375 -0.46875 0.875q0 0.3125 0.1875 0.578125q0.203125 0.265625 0.640625 0.4375q0.234375 0.09375 1.4375 0.421875q1.75 0.453125 2.4375 0.75q0.6875 0.296875 1.078125 0.859375q0.390625 0.5625 0.390625 1.40625q0 0.828125 -0.484375 1.546875q-0.46875 0.71875 -1.375 1.125q-0.90625 0.390625 -2.046875 0.390625q-1.875 0 -2.875 -0.78125q-0.984375 -0.78125 -1.25 -2.328125zm9.984375 -8.578125l0 -1.890625l1.640625 0l0 1.890625l-1.640625 0zm0 11.46875l0 -9.671875l1.640625 0l0 9.671875l-1.640625 0zm7.7229614 -1.46875l0.234375 1.453125q-0.6875 0.140625 -1.234375 0.140625q-0.890625 0 -1.390625 -0.28125q-0.484375 -0.28125 -0.6875 -0.734375q-0.203125 -0.46875 -0.203125 -1.9375l0 -5.578125l-1.203125 0l0 -1.265625l1.203125 0l0 -2.390625l1.625 -0.984375l0 3.375l1.65625 0l0 1.265625l-1.65625 0l0 5.671875q0 0.6875 0.078125 0.890625q0.09375 0.203125 0.28125 0.328125q0.203125 0.109375 0.578125 0.109375q0.265625 0 0.71875 -0.0625zm8.230164 -1.640625l1.6875 0.203125q-0.40625 1.484375 -1.484375 2.3125q-1.078125 0.8125 -2.765625 0.8125q-2.125 0 -3.375 -1.296875q-1.234375 -1.3125 -1.234375 -3.671875q0 -2.453125 1.25 -3.796875q1.265625 -1.34375 3.265625 -1.34375q1.9375 0 3.15625 1.328125q1.234375 1.3125 1.234375 3.703125q0 0.15625 0 0.4375l-7.21875 0q0.09375 1.59375 0.90625 2.453125q0.8125 0.84375 2.015625 0.84375q0.90625 0 1.546875 -0.46875q0.640625 -0.484375 1.015625 -1.515625zm-5.390625 -2.65625l5.40625 0q-0.109375 -1.21875 -0.625 -1.828125q-0.78125 -0.953125 -2.03125 -0.953125q-1.125 0 -1.90625 0.765625q-0.765625 0.75 -0.84375 2.015625zm8.485107 2.875l1.625 -0.25q0.125 0.96875 0.75 1.5q0.625 0.515625 1.75 0.515625q1.125 0 1.671875 -0.453125q0.546875 -0.46875 0.546875 -1.09375q0 -0.546875 -0.484375 -0.875q-0.328125 -0.21875 -1.671875 -0.546875q-1.8125 -0.46875 -2.515625 -0.796875q-0.6875 -0.328125 -1.046875 -0.90625q-0.359375 -0.59375 -0.359375 -1.3125q0 -0.640625 0.296875 -1.1875q0.296875 -0.5625 0.8125 -0.921875q0.375 -0.28125 1.03125 -0.46875q0.671875 -0.203125 1.421875 -0.203125q1.140625 0 2.0 0.328125q0.859375 0.328125 1.265625 0.890625q0.421875 0.5625 0.578125 1.5l-1.609375 0.21875q-0.109375 -0.75 -0.640625 -1.171875q-0.515625 -0.421875 -1.46875 -0.421875q-1.140625 0 -1.625 0.375q-0.46875 0.375 -0.46875 0.875q0 0.3125 0.1875 0.578125q0.203125 0.265625 0.640625 0.4375q0.234375 0.09375 1.4375 0.421875q1.75 0.453125 2.4375 0.75q0.6875 0.296875 1.078125 0.859375q0.390625 0.5625 0.390625 1.40625q0 0.828125 -0.484375 1.546875q-0.46875 0.71875 -1.375 1.125q-0.90625 0.390625 -2.046875 0.390625q-1.875 0 -2.875 -0.78125q-0.984375 -0.78125 -1.25 -2.328125zm13.109375 6.8125q-1.359375 -1.703125 -2.296875 -4.0q-0.9375 -2.296875 -0.9375 -4.765625q0 -2.15625 0.703125 -4.140625q0.828125 -2.3125 2.53125 -4.59375l1.171875 0q-1.09375 1.890625 -1.453125 2.703125q-0.546875 1.25 -0.875 2.625q-0.390625 1.703125 -0.390625 3.421875q0 4.375 2.71875 8.75l-1.171875 0zm3.5407715 -3.921875l0 -1.875l1.875 0l0 1.875l-1.875 0zm5.1833496 0l0 -1.875l1.875 0l0 1.875l-1.875 0zm5.1832886 0l0 -1.875l1.875 0l0 1.875l-1.875 0zm5.8082886 3.921875l-1.1875 0q2.734375 -4.375 2.734375 -8.75q0 -1.71875 -0.390625 -3.390625q-0.3125 -1.375 -0.875 -2.625q-0.359375 -0.828125 -1.46875 -2.734375l1.1875 0q1.703125 2.28125 2.53125 4.59375q0.6875 1.984375 0.6875 4.140625q0 2.46875 -0.9375 4.765625q-0.9375 2.296875 -2.28125 4.0z" fill-rule="nonzero"/><path fill="#000000" d="m445.18808 638.3056l0 3.515625q0.875 -1.03125 2.109375 -1.03125q0.640625 0 1.140625 0.234375q0.515625 0.234375 0.765625 0.59375q0.25 0.359375 0.34375 0.8125q0.109375 0.4375 0.109375 1.375l0 4.046875l-1.828125 0l0 -3.65625q0 -1.078125 -0.109375 -1.375q-0.109375 -0.296875 -0.375 -0.46875q-0.265625 -0.171875 -0.65625 -0.171875q-0.453125 0 -0.8125 0.234375q-0.359375 0.21875 -0.53125 0.671875q-0.15625 0.4375 -0.15625 1.296875l0 3.46875l-1.828125 0l0 -9.546875l1.828125 0zm5.8913574 6.0q0 -0.921875 0.453125 -1.765625q0.453125 -0.859375 1.265625 -1.296875q0.828125 -0.453125 1.84375 -0.453125q1.5625 0 2.5625 1.015625q1.015625 1.015625 1.015625 2.578125q0 1.5625 -1.015625 2.59375q-1.015625 1.03125 -2.546875 1.03125q-0.953125 0 -1.8125 -0.421875q-0.859375 -0.4375 -1.3125 -1.265625q-0.453125 -0.828125 -0.453125 -2.015625zm1.875 0.09375q0 1.03125 0.484375 1.578125q0.5 0.546875 1.203125 0.546875q0.71875 0 1.203125 -0.546875q0.484375 -0.546875 0.484375 -1.59375q0 -1.015625 -0.484375 -1.5625q-0.484375 -0.546875 -1.203125 -0.546875q-0.703125 0 -1.203125 0.546875q-0.484375 0.546875 -0.484375 1.578125zm6.0476074 1.484375l1.828125 -0.28125q0.125 0.53125 0.484375 0.8125q0.359375 0.265625 1.0 0.265625q0.703125 0 1.0625 -0.25q0.25 -0.1875 0.25 -0.484375q0 -0.21875 -0.140625 -0.359375q-0.125 -0.125 -0.609375 -0.234375q-2.203125 -0.484375 -2.796875 -0.890625q-0.828125 -0.5625 -0.828125 -1.5625q0 -0.890625 0.703125 -1.5q0.71875 -0.609375 2.203125 -0.609375q1.421875 0 2.109375 0.46875q0.703125 0.453125 0.953125 1.359375l-1.71875 0.3125q-0.109375 -0.40625 -0.421875 -0.609375q-0.3125 -0.21875 -0.890625 -0.21875q-0.71875 0 -1.03125 0.203125q-0.203125 0.140625 -0.203125 0.359375q0 0.203125 0.1875 0.34375q0.234375 0.171875 1.6875 0.515625q1.46875 0.328125 2.0625 0.8125q0.5625 0.484375 0.5625 1.359375q0 0.953125 -0.796875 1.640625q-0.78125 0.671875 -2.34375 0.671875q-1.40625 0 -2.234375 -0.5625q-0.828125 -0.578125 -1.078125 -1.5625zm11.224976 -4.9375l0 1.453125l-1.25 0l0 2.78125q0 0.84375 0.03125 0.984375q0.046875 0.140625 0.171875 0.234375q0.125 0.09375 0.3125 0.09375q0.25 0 0.734375 -0.171875l0.15625 1.421875q-0.640625 0.265625 -1.453125 0.265625q-0.484375 0 -0.890625 -0.15625q-0.390625 -0.171875 -0.578125 -0.4375q-0.1875 -0.265625 -0.265625 -0.71875q-0.046875 -0.3125 -0.046875 -1.28125l0 -3.015625l-0.84375 0l0 -1.453125l0.84375 0l0 -1.375l1.828125 -1.078125l0 2.453125l1.25 0zm0.8602295 1.59375l0 -1.671875l6.671875 0l0 1.671875l-6.671875 0zm0 2.890625l0 -1.6875l6.671875 0l0 1.6875l-6.671875 0z" fill-rule="nonzero"/><path fill="#010000" fill-opacity="0.0" d="m478.3238 635.78687l93.54407 0l0 15.32605l-93.54407 0l0 -15.32605z" fill-rule="nonzero"/><path fill="#000099" d="m480.5738 647.8525l-2.1875 -6.90625l1.765625 0l1.296875 4.53125l1.203125 -4.53125l1.75 0l1.15625 4.53125l1.328125 -4.53125l1.796875 0l-2.21875 6.90625l-1.75 0l-1.203125 -4.4375l-1.171875 4.4375l-1.765625 0zm10.367065 0l-2.1875 -6.90625l1.765625 0l1.296875 4.53125l1.203125 -4.53125l1.75 0l1.15625 4.53125l1.328125 -4.53125l1.796875 0l-2.21875 6.90625l-1.75 0l-1.203125 -4.4375l-1.171875 4.4375l-1.765625 0zm10.367035 0l-2.1875 -6.90625l1.765625 0l1.296875 4.53125l1.203125 -4.53125l1.75 0l1.15625 4.53125l1.328125 -4.53125l1.796875 0l-2.21875 6.90625l-1.75 0l-1.203125 -4.4375l-1.171875 4.4375l-1.765625 0zm8.575378 0l0 -1.828125l1.828125 0l0 1.828125l-1.828125 0zm3.6248474 0l0 -9.546875l1.828125 0l0 3.4375q0.84375 -0.953125 2.015625 -0.953125q1.25 0 2.078125 0.921875q0.828125 0.90625 0.828125 2.609375q0 1.78125 -0.84375 2.734375q-0.84375 0.953125 -2.046875 0.953125q-0.59375 0 -1.171875 -0.296875q-0.5625 -0.296875 -0.984375 -0.875l0 1.015625l-1.703125 0zm1.8125 -3.609375q0 1.078125 0.34375 1.59375q0.46875 0.734375 1.265625 0.734375q0.609375 0 1.03125 -0.515625q0.421875 -0.53125 0.421875 -1.640625q0 -1.1875 -0.4375 -1.703125q-0.421875 -0.53125 -1.09375 -0.53125q-0.65625 0 -1.09375 0.515625q-0.4375 0.515625 -0.4375 1.546875zm6.4069824 -4.234375l0 -1.703125l1.828125 0l0 1.703125l-1.828125 0zm0 7.84375l0 -6.90625l1.828125 0l0 6.90625l-1.828125 0zm9.999878 0l-1.828125 0l0 -3.53125q0 -1.109375 -0.125 -1.4375q-0.109375 -0.328125 -0.375 -0.515625q-0.265625 -0.1875 -0.640625 -0.1875q-0.46875 0 -0.859375 0.265625q-0.375 0.265625 -0.515625 0.703125q-0.140625 0.421875 -0.140625 1.578125l0 3.125l-1.828125 0l0 -6.90625l1.703125 0l0 1.015625q0.90625 -1.171875 2.28125 -1.171875q0.609375 0 1.109375 0.21875q0.5 0.21875 0.75 0.5625q0.265625 0.328125 0.359375 0.765625q0.109375 0.421875 0.109375 1.21875l0 4.296875zm1.6726074 0.453125l2.09375 0.25q0.046875 0.375 0.25 0.5q0.25 0.203125 0.8125 0.203125q0.71875 0 1.078125 -0.21875q0.234375 -0.140625 0.359375 -0.453125q0.078125 -0.234375 0.078125 -0.84375l0 -1.015625q-0.8125 1.125 -2.0625 1.125q-1.390625 0 -2.203125 -1.171875q-0.640625 -0.9375 -0.640625 -2.328125q0 -1.734375 0.828125 -2.640625q0.84375 -0.921875 2.09375 -0.921875q1.28125 0 2.109375 1.125l0 -0.96875l1.703125 0l0 6.203125q0 1.21875 -0.203125 1.8125q-0.1875 0.609375 -0.5625 0.953125q-0.359375 0.359375 -0.96875 0.546875q-0.609375 0.203125 -1.53125 0.203125q-1.765625 0 -2.5 -0.609375q-0.734375 -0.609375 -0.734375 -1.53125q0 -0.09375 0 -0.21875zm1.640625 -4.046875q0 1.09375 0.421875 1.609375q0.4375 0.5 1.046875 0.5q0.671875 0 1.140625 -0.515625q0.46875 -0.53125 0.46875 -1.546875q0 -1.078125 -0.453125 -1.59375q-0.4375 -0.53125 -1.109375 -0.53125q-0.65625 0 -1.09375 0.515625q-0.421875 0.515625 -0.421875 1.5625zm6.6726074 3.59375l0 -1.828125l1.828125 0l0 1.828125l-1.828125 0zm9.734253 -4.875l-1.796875 0.328125q-0.09375 -0.53125 -0.421875 -0.796875q-0.328125 -0.28125 -0.828125 -0.28125q-0.6875 0 -1.09375 0.46875q-0.40625 0.46875 -0.40625 1.578125q0 1.234375 0.40625 1.75q0.421875 0.5 1.109375 0.5q0.53125 0 0.859375 -0.296875q0.328125 -0.296875 0.46875 -1.03125l1.796875 0.3125q-0.28125 1.234375 -1.078125 1.875q-0.796875 0.625 -2.125 0.625q-1.515625 0 -2.421875 -0.953125q-0.90625 -0.953125 -0.90625 -2.65625q0 -1.703125 0.90625 -2.65625q0.90625 -0.953125 2.453125 -0.953125q1.265625 0 2.0 0.546875q0.75 0.53125 1.078125 1.640625zm0.9593506 1.328125q0 -0.921875 0.453125 -1.765625q0.453125 -0.859375 1.265625 -1.296875q0.828125 -0.453125 1.84375 -0.453125q1.5625 0 2.5625 1.015625q1.015625 1.015625 1.015625 2.578125q0 1.5625 -1.015625 2.59375q-1.015625 1.03125 -2.546875 1.03125q-0.953125 0 -1.8125 -0.421875q-0.859375 -0.4375 -1.3125 -1.265625q-0.453125 -0.828125 -0.453125 -2.015625zm1.875 0.09375q0 1.03125 0.484375 1.578125q0.5 0.546875 1.203125 0.546875q0.71875 0 1.203125 -0.546875q0.484375 -0.546875 0.484375 -1.59375q0 -1.015625 -0.484375 -1.5625q-0.484375 -0.546875 -1.203125 -0.546875q-0.703125 0 -1.203125 0.546875q-0.484375 0.546875 -0.484375 1.578125zm6.5476074 -3.453125l1.6875 0l0 0.9375q0.90625 -1.09375 2.15625 -1.09375q0.671875 0 1.15625 0.28125q0.484375 0.265625 0.796875 0.8125q0.453125 -0.546875 0.984375 -0.8125q0.53125 -0.28125 1.125 -0.28125q0.765625 0 1.28125 0.3125q0.53125 0.296875 0.796875 0.90625q0.1875 0.4375 0.1875 1.421875l0 4.421875l-1.828125 0l0 -3.953125q0 -1.03125 -0.1875 -1.328125q-0.25 -0.390625 -0.78125 -0.390625q-0.390625 0 -0.734375 0.234375q-0.328125 0.234375 -0.484375 0.6875q-0.140625 0.453125 -0.140625 1.4375l0 3.3125l-1.828125 0l0 -3.78125q0 -1.015625 -0.109375 -1.296875q-0.09375 -0.296875 -0.296875 -0.4375q-0.203125 -0.15625 -0.546875 -0.15625q-0.421875 0 -0.765625 0.234375q-0.34375 0.21875 -0.484375 0.65625q-0.140625 0.421875 -0.140625 1.421875l0 3.359375l-1.84375 0l0 -6.90625z" fill-rule="nonzero"/><path fill="#000000" fill-opacity="0.0" d="m571.86786 635.78687l0 0l0 15.32605l0 0l0 -15.32605z" fill-rule="nonzero"/><path fill="#000099" d="m478.3238 648.7192l93.54407 0l0 1.1999512l-93.54407 0l0 -1.1999512z" fill-rule="nonzero"/><path fill="#000000" d="m446.53183 656.9462l0 1.453125l-1.25 0l0 2.78125q0 0.84375 0.03125 0.984375q0.046875 0.140625 0.171875 0.234375q0.125 0.09375 0.3125 0.09375q0.25 0 0.734375 -0.171875l0.15625 1.421875q-0.640625 0.265625 -1.453125 0.265625q-0.484375 0 -0.890625 -0.15625q-0.390625 -0.171875 -0.578125 -0.4375q-0.1875 -0.265625 -0.265625 -0.71875q-0.046875 -0.3125 -0.046875 -1.28125l0 -3.015625l-0.84375 0l0 -1.453125l0.84375 0l0 -1.375l1.828125 -1.078125l0 2.453125l1.25 0zm1.2664795 -0.9375l0 -1.703125l1.828125 0l0 1.703125l-1.828125 0zm0 7.84375l0 -6.90625l1.828125 0l0 6.90625l-1.828125 0zm6.874878 -6.90625l0 1.453125l-1.25 0l0 2.78125q0 0.84375 0.03125 0.984375q0.046875 0.140625 0.171875 0.234375q0.125 0.09375 0.3125 0.09375q0.25 0 0.734375 -0.171875l0.15625 1.421875q-0.640625 0.265625 -1.453125 0.265625q-0.484375 0 -0.890625 -0.15625q-0.390625 -0.171875 -0.578125 -0.4375q-0.1875 -0.265625 -0.265625 -0.71875q-0.046875 -0.3125 -0.046875 -1.28125l0 -3.015625l-0.84375 0l0 -1.453125l0.84375 0l0 -1.375l1.828125 -1.078125l0 2.453125l1.25 0zm1.2664795 6.90625l0 -9.546875l1.828125 0l0 9.546875l-1.828125 0zm7.703003 -2.203125l1.828125 0.3125q-0.34375 1.0 -1.109375 1.53125q-0.765625 0.515625 -1.890625 0.515625q-1.8125 0 -2.671875 -1.171875q-0.6875 -0.953125 -0.6875 -2.390625q0 -1.71875 0.890625 -2.6875q0.90625 -0.96875 2.28125 -0.96875q1.546875 0 2.4375 1.015625q0.890625 1.015625 0.84375 3.125l-4.578125 0q0.015625 0.8125 0.4375 1.265625q0.421875 0.453125 1.0625 0.453125q0.421875 0 0.71875 -0.234375q0.296875 -0.234375 0.4375 -0.765625zm0.109375 -1.84375q-0.015625 -0.796875 -0.40625 -1.203125q-0.390625 -0.421875 -0.953125 -0.421875q-0.59375 0 -0.984375 0.4375q-0.390625 0.4375 -0.390625 1.1875l2.734375 0zm2.8968506 -1.265625l0 -1.671875l6.671875 0l0 1.671875l-6.671875 0zm0 2.890625l0 -1.6875l6.671875 0l0 1.6875l-6.671875 0zm8.205292 -7.125l3.828125 0q1.125 0 1.671875 0.09375q0.5625 0.09375 1.0 0.40625q0.4375 0.296875 0.734375 0.796875q0.296875 0.5 0.296875 1.109375q0 0.671875 -0.359375 1.234375q-0.359375 0.5625 -0.984375 0.84375q0.875 0.25 1.34375 0.859375q0.46875 0.609375 0.46875 1.4375q0 0.65625 -0.3125 1.265625q-0.296875 0.609375 -0.828125 0.984375q-0.515625 0.359375 -1.28125 0.453125q-0.484375 0.046875 -2.328125 0.0625l-3.25 0l0 -9.546875zm1.9375 1.59375l0 2.203125l1.265625 0q1.125 0 1.390625 -0.03125q0.5 -0.0625 0.78125 -0.34375q0.28125 -0.28125 0.28125 -0.734375q0 -0.453125 -0.25 -0.71875q-0.234375 -0.28125 -0.71875 -0.34375q-0.28125 -0.03125 -1.640625 -0.03125l-1.109375 0zm0 3.796875l0 2.546875l1.78125 0q1.046875 0 1.3125 -0.0625q0.4375 -0.078125 0.703125 -0.375q0.265625 -0.296875 0.265625 -0.8125q0 -0.421875 -0.203125 -0.71875q-0.203125 -0.3125 -0.609375 -0.4375q-0.390625 -0.140625 -1.703125 -0.140625l-1.546875 0zm7.6720276 -3.6875l0 -1.703125l1.828125 0l0 1.703125l-1.828125 0zm0 7.84375l0 -6.90625l1.828125 0l0 6.90625l-1.828125 0zm9.999847 0l-1.828125 0l0 -3.53125q0 -1.109375 -0.125 -1.4375q-0.109375 -0.328125 -0.375 -0.515625q-0.265625 -0.1875 -0.640625 -0.1875q-0.46875 0 -0.859375 0.265625q-0.375 0.265625 -0.515625 0.703125q-0.140625 0.421875 -0.140625 1.578125l0 3.125l-1.828125 0l0 -6.90625l1.703125 0l0 1.015625q0.90625 -1.171875 2.28125 -1.171875q0.609375 0 1.109375 0.21875q0.5 0.21875 0.75 0.5625q0.265625 0.328125 0.359375 0.765625q0.109375 0.421875 0.109375 1.21875l0 4.296875zm1.6726074 0.453125l2.09375 0.25q0.046875 0.375 0.25 0.5q0.25 0.203125 0.8125 0.203125q0.71875 0 1.078125 -0.21875q0.234375 -0.140625 0.359375 -0.453125q0.078125 -0.234375 0.078125 -0.84375l0 -1.015625q-0.8125 1.125 -2.0625 1.125q-1.390625 0 -2.203125 -1.171875q-0.640625 -0.9375 -0.640625 -2.328125q0 -1.734375 0.828125 -2.640625q0.84375 -0.921875 2.09375 -0.921875q1.28125 0 2.109375 1.125l0 -0.96875l1.703125 0l0 6.203125q0 1.21875 -0.203125 1.8125q-0.1875 0.609375 -0.5625 0.953125q-0.359375 0.359375 -0.96875 0.546875q-0.609375 0.203125 -1.53125 0.203125q-1.765625 0 -2.5 -0.609375q-0.734375 -0.609375 -0.734375 -1.53125q0 -0.09375 0 -0.21875zm1.640625 -4.046875q0 1.09375 0.421875 1.609375q0.4375 0.5 1.046875 0.5q0.671875 0 1.140625 -0.515625q0.46875 -0.53125 0.46875 -1.546875q0 -1.078125 -0.453125 -1.59375q-0.4375 -0.53125 -1.109375 -0.53125q-0.65625 0 -1.09375 0.515625q-0.421875 0.515625 -0.421875 1.5625z" fill-rule="nonzero"/><a xlink:href="https://www.google.com/url?q=http://www.google.com&amp;sa=D&amp;ust=1584973513829000&amp;usg=AFQjCNE8noeQN982fjud00XWWtczOdhIJA" target="_blank" rel="noreferrer"><path fill="transparent" fill-opacity="0" d="m478.3238 635.0525l93.54407 0l0 16.0l-93.54407 0l0 -16.0z" fill-rule="nonzero"/></a></g></svg>